M48
; DRILL file {KiCad 7.0.8} date Wed Dec 20 13:32:05 2023
; FORMAT={3:3/ absolute / metric / suppress leading zeros}
; #@! TF.CreationDate,2023-12-20T13:32:05-05:00
; #@! TF.GenerationSoftware,Kicad,Pcbnew,7.0.8
; #@! TF.FileFunction,MixedPlating,1,2
FMAT,2
METRIC,TZ
; #@! TA.AperFunction,Plated,PTH,ViaDrill
T1C0.254
; #@! TA.AperFunction,Plated,PTH,ComponentDrill
T2C1.016
%
G90
G05
T1
X3683Y73762
X7264Y68504
X7442Y30582
X7976Y33655
X8128Y28016
X8331Y35281
X8661Y27584
X8700Y38760
X9055Y41373
X9195Y27153
X9576Y43815
X13589Y41275
X13589Y38760
X13589Y33655
X13614Y43815
X13614Y20904
X14732Y42545
X15215Y66675
X15265Y63398
X15291Y40005
X15824Y18415
X16535Y90678
X20422Y53975
X20726Y49759
X21057Y60325
X21057Y57785
X21057Y50368
X21615Y50800
X21666Y30531
T2
X5715Y84455
X5715Y81915
X5715Y79375
X5715Y76835
X5715Y74295
X5715Y71755
X5715Y69215
X5715Y66675
X5715Y64135
X5715Y61595
X5715Y59055
X5715Y56515
X5715Y53975
X5715Y51435
X5715Y48895
X5715Y46355
X5715Y43815
X5715Y41275
X5715Y38735
X5715Y36195
X5715Y33655
X5715Y31115
X5715Y28575
X5715Y26035
X5715Y23495
X5715Y20955
X5715Y18415
X5715Y15875
X5715Y13335
X5715Y10795
X5715Y8255
X5715Y5715
X12192Y75565
X12192Y73025
X12192Y70485
X12192Y67945
X12192Y65405
X12192Y62865
X12192Y60325
X12192Y57785
X12192Y55245
X12192Y52705
X12192Y50165
X12192Y47625
X12192Y45085
X12192Y42545
X12192Y40005
X12192Y37465
X12192Y34925
X12192Y32385
X12192Y29845
X12192Y27305
X12192Y24765
X12192Y22225
X12192Y19685
X12192Y17145
X12192Y14605
X17272Y75565
X17272Y73025
X17272Y70485
X17272Y67945
X17272Y65405
X17272Y62865
X17272Y60325
X17272Y57785
X17272Y55245
X17272Y52705
X17272Y50165
X17272Y47625
X17272Y45085
X17272Y42545
X17272Y40005
X17272Y37465
X17272Y34925
X17272Y32385
X17272Y29845
X17272Y27305
X17272Y24765
X17272Y22225
X17272Y19685
X17272Y17145
X17272Y14605
X23495Y84455
X23495Y81915
X23495Y79375
X23495Y76835
X23495Y74295
X23495Y71755
X23495Y69215
X23495Y66675
X23495Y64135
X23495Y61595
X23495Y59055
X23495Y56515
X23495Y53975
X23495Y51435
X23495Y48895
X23495Y46355
X23495Y43815
X23495Y41275
X23495Y38735
X23495Y36195
X23495Y33655
X23495Y31115
X23495Y28575
X23495Y26035
X23495Y23495
X23495Y20955
X23495Y18415
X23495Y15875
X23495Y13335
X23495Y10795
X23495Y8255
X23495Y5715
T0
M30
