G04 #@! TF.GenerationSoftware,KiCad,Pcbnew,7.0.8*
G04 #@! TF.CreationDate,2023-12-20T13:31:54-05:00*
G04 #@! TF.ProjectId,sms-umd,736d732d-756d-4642-9e6b-696361645f70,3.0*
G04 #@! TF.SameCoordinates,PX7c25018PY8f85f18*
G04 #@! TF.FileFunction,Legend,Bot*
G04 #@! TF.FilePolarity,Positive*
%FSLAX46Y46*%
G04 Gerber Fmt 4.6, Leading zero omitted, Abs format (unit mm)*
G04 Created by KiCad (PCBNEW 7.0.8) date 2023-12-20 13:31:54*
%MOMM*%
%LPD*%
G01*
G04 APERTURE LIST*
%ADD10C,0.203200*%
%ADD11C,0.254000*%
G04 APERTURE END LIST*
D10*
X18350035Y89590034D02*
X18392369Y89632367D01*
X18392369Y89632367D02*
X18434702Y89759367D01*
X18434702Y89759367D02*
X18434702Y89844034D01*
X18434702Y89844034D02*
X18392369Y89971034D01*
X18392369Y89971034D02*
X18307702Y90055700D01*
X18307702Y90055700D02*
X18223035Y90098034D01*
X18223035Y90098034D02*
X18053702Y90140367D01*
X18053702Y90140367D02*
X17926702Y90140367D01*
X17926702Y90140367D02*
X17757369Y90098034D01*
X17757369Y90098034D02*
X17672702Y90055700D01*
X17672702Y90055700D02*
X17588035Y89971034D01*
X17588035Y89971034D02*
X17545702Y89844034D01*
X17545702Y89844034D02*
X17545702Y89759367D01*
X17545702Y89759367D02*
X17588035Y89632367D01*
X17588035Y89632367D02*
X17630369Y89590034D01*
X18434702Y88743367D02*
X18434702Y89251367D01*
X18434702Y88997367D02*
X17545702Y88997367D01*
X17545702Y88997367D02*
X17672702Y89082034D01*
X17672702Y89082034D02*
X17757369Y89166700D01*
X17757369Y89166700D02*
X17799702Y89251367D01*
X17545702Y88193033D02*
X17545702Y88108367D01*
X17545702Y88108367D02*
X17588035Y88023700D01*
X17588035Y88023700D02*
X17630369Y87981367D01*
X17630369Y87981367D02*
X17715035Y87939033D01*
X17715035Y87939033D02*
X17884369Y87896700D01*
X17884369Y87896700D02*
X18096035Y87896700D01*
X18096035Y87896700D02*
X18265369Y87939033D01*
X18265369Y87939033D02*
X18350035Y87981367D01*
X18350035Y87981367D02*
X18392369Y88023700D01*
X18392369Y88023700D02*
X18434702Y88108367D01*
X18434702Y88108367D02*
X18434702Y88193033D01*
X18434702Y88193033D02*
X18392369Y88277700D01*
X18392369Y88277700D02*
X18350035Y88320033D01*
X18350035Y88320033D02*
X18265369Y88362367D01*
X18265369Y88362367D02*
X18096035Y88404700D01*
X18096035Y88404700D02*
X17884369Y88404700D01*
X17884369Y88404700D02*
X17715035Y88362367D01*
X17715035Y88362367D02*
X17630369Y88320033D01*
X17630369Y88320033D02*
X17588035Y88277700D01*
X17588035Y88277700D02*
X17545702Y88193033D01*
X18434702Y87050033D02*
X18434702Y87558033D01*
X18434702Y87304033D02*
X17545702Y87304033D01*
X17545702Y87304033D02*
X17672702Y87388700D01*
X17672702Y87388700D02*
X17757369Y87473366D01*
X17757369Y87473366D02*
X17799702Y87558033D01*
X12192000Y86848298D02*
X12192000Y86128631D01*
X12192000Y86128631D02*
X12149667Y86043965D01*
X12149667Y86043965D02*
X12107333Y86001631D01*
X12107333Y86001631D02*
X12022667Y85959298D01*
X12022667Y85959298D02*
X11853333Y85959298D01*
X11853333Y85959298D02*
X11768667Y86001631D01*
X11768667Y86001631D02*
X11726333Y86043965D01*
X11726333Y86043965D02*
X11684000Y86128631D01*
X11684000Y86128631D02*
X11684000Y86848298D01*
X10795000Y85959298D02*
X11303000Y85959298D01*
X11049000Y85959298D02*
X11049000Y86848298D01*
X11049000Y86848298D02*
X11133667Y86721298D01*
X11133667Y86721298D02*
X11218334Y86636631D01*
X11218334Y86636631D02*
X11303000Y86594298D01*
X10244667Y86848298D02*
X10160000Y86848298D01*
X10160000Y86848298D02*
X10075333Y86805965D01*
X10075333Y86805965D02*
X10033000Y86763631D01*
X10033000Y86763631D02*
X9990667Y86678965D01*
X9990667Y86678965D02*
X9948333Y86509631D01*
X9948333Y86509631D02*
X9948333Y86297965D01*
X9948333Y86297965D02*
X9990667Y86128631D01*
X9990667Y86128631D02*
X10033000Y86043965D01*
X10033000Y86043965D02*
X10075333Y86001631D01*
X10075333Y86001631D02*
X10160000Y85959298D01*
X10160000Y85959298D02*
X10244667Y85959298D01*
X10244667Y85959298D02*
X10329333Y86001631D01*
X10329333Y86001631D02*
X10371667Y86043965D01*
X10371667Y86043965D02*
X10414000Y86128631D01*
X10414000Y86128631D02*
X10456333Y86297965D01*
X10456333Y86297965D02*
X10456333Y86509631D01*
X10456333Y86509631D02*
X10414000Y86678965D01*
X10414000Y86678965D02*
X10371667Y86763631D01*
X10371667Y86763631D02*
X10329333Y86805965D01*
X10329333Y86805965D02*
X10244667Y86848298D01*
X9101666Y85959298D02*
X9609666Y85959298D01*
X9355666Y85959298D02*
X9355666Y86848298D01*
X9355666Y86848298D02*
X9440333Y86721298D01*
X9440333Y86721298D02*
X9525000Y86636631D01*
X9525000Y86636631D02*
X9609666Y86594298D01*
D11*
X16891000Y88595200D02*
X16129000Y88595200D01*
X7015000Y93880000D02*
X12215000Y93880000D01*
X7015000Y87230000D02*
X7015000Y93880000D01*
X9215000Y87230000D02*
X7015000Y87230000D01*
X12215000Y93880000D02*
X12215000Y87230000D01*
X12215000Y87230000D02*
X10015000Y87230000D01*
X10015000Y87230000D02*
G75*
G03*
X9215000Y87230000I-400000J0D01*
G01*
M02*
