G04 #@! TF.GenerationSoftware,KiCad,Pcbnew,7.0.8*
G04 #@! TF.CreationDate,2023-12-20T13:31:54-05:00*
G04 #@! TF.ProjectId,sms-umd,736d732d-756d-4642-9e6b-696361645f70,3.0*
G04 #@! TF.SameCoordinates,PX7c25018PY8f85f18*
G04 #@! TF.FileFunction,Copper,L1,Top*
G04 #@! TF.FilePolarity,Positive*
%FSLAX46Y46*%
G04 Gerber Fmt 4.6, Leading zero omitted, Abs format (unit mm)*
G04 Created by KiCad (PCBNEW 7.0.8) date 2023-12-20 13:31:54*
%MOMM*%
%LPD*%
G01*
G04 APERTURE LIST*
G04 #@! TA.AperFunction,ComponentPad*
%ADD10C,1.524000*%
G04 #@! TD*
G04 #@! TA.AperFunction,ViaPad*
%ADD11C,0.508000*%
G04 #@! TD*
G04 #@! TA.AperFunction,Conductor*
%ADD12C,0.177800*%
G04 #@! TD*
G04 #@! TA.AperFunction,Conductor*
%ADD13C,0.254000*%
G04 #@! TD*
G04 APERTURE END LIST*
D10*
X12192000Y75565000D03*
X17272000Y75565000D03*
X12192000Y73025000D03*
X17272000Y73025000D03*
X12192000Y70485000D03*
X17272000Y70485000D03*
X12192000Y67945000D03*
X17272000Y67945000D03*
X12192000Y65405000D03*
X17272000Y65405000D03*
X12192000Y62865000D03*
X17272000Y62865000D03*
X12192000Y60325000D03*
X17272000Y60325000D03*
X12192000Y57785000D03*
X17272000Y57785000D03*
X12192000Y55245000D03*
X17272000Y55245000D03*
X12192000Y52705000D03*
X17272000Y52705000D03*
X12192000Y50165000D03*
X17272000Y50165000D03*
X12192000Y47625000D03*
X17272000Y47625000D03*
X12192000Y45085000D03*
X17272000Y45085000D03*
X12192000Y42545000D03*
X17272000Y42545000D03*
X12192000Y40005000D03*
X17272000Y40005000D03*
X12192000Y37465000D03*
X17272000Y37465000D03*
X12192000Y34925000D03*
X17272000Y34925000D03*
X12192000Y32385000D03*
X17272000Y32385000D03*
X12192000Y29845000D03*
X17272000Y29845000D03*
X12192000Y27305000D03*
X17272000Y27305000D03*
X12192000Y24765000D03*
X17272000Y24765000D03*
X12192000Y22225000D03*
X17272000Y22225000D03*
X12192000Y19685000D03*
X17272000Y19685000D03*
X12192000Y17145000D03*
X17272000Y17145000D03*
X12192000Y14605000D03*
X17272000Y14605000D03*
X5715000Y84455000D03*
X5715000Y81915000D03*
X5715000Y79375000D03*
X5715000Y76835000D03*
X5715000Y74295000D03*
X5715000Y71755000D03*
X5715000Y69215000D03*
X5715000Y66675000D03*
X5715000Y64135000D03*
X5715000Y61595000D03*
X5715000Y59055000D03*
X5715000Y56515000D03*
X5715000Y53975000D03*
X5715000Y51435000D03*
X5715000Y48895000D03*
X5715000Y46355000D03*
X5715000Y43815000D03*
X5715000Y41275000D03*
X5715000Y38735000D03*
X5715000Y36195000D03*
X5715000Y33655000D03*
X5715000Y31115000D03*
X5715000Y28575000D03*
X5715000Y26035000D03*
X5715000Y23495000D03*
X5715000Y20955000D03*
X5715000Y18415000D03*
X5715000Y15875000D03*
X5715000Y13335000D03*
X5715000Y10795000D03*
X5715000Y8255000D03*
X5715000Y5715000D03*
X23495000Y5715000D03*
X23495000Y8255000D03*
X23495000Y10795000D03*
X23495000Y13335000D03*
X23495000Y15875000D03*
X23495000Y18415000D03*
X23495000Y20955000D03*
X23495000Y23495000D03*
X23495000Y26035000D03*
X23495000Y28575000D03*
X23495000Y31115000D03*
X23495000Y33655000D03*
X23495000Y36195000D03*
X23495000Y38735000D03*
X23495000Y41275000D03*
X23495000Y43815000D03*
X23495000Y46355000D03*
X23495000Y48895000D03*
X23495000Y51435000D03*
X23495000Y53975000D03*
X23495000Y56515000D03*
X23495000Y59055000D03*
X23495000Y61595000D03*
X23495000Y64135000D03*
X23495000Y66675000D03*
X23495000Y69215000D03*
X23495000Y71755000D03*
X23495000Y74295000D03*
X23495000Y76835000D03*
X23495000Y79375000D03*
X23495000Y81915000D03*
X23495000Y84455000D03*
D11*
X3683000Y73761600D03*
X20726400Y49758600D03*
X13614400Y43815000D03*
X9575800Y43815000D03*
X9194800Y27152600D03*
X13589000Y41275000D03*
X9055100Y41372714D03*
X8661400Y27584400D03*
X13589000Y38760400D03*
X8699500Y38760400D03*
X8128000Y28016200D03*
X13589000Y33655000D03*
X7975600Y33655000D03*
X8331200Y35280600D03*
X13614400Y20904200D03*
X7442200Y30581600D03*
X15824200Y18415000D03*
X14732000Y42545000D03*
X15290800Y40005000D03*
X21666200Y30530800D03*
X20421600Y53975000D03*
X15214600Y66675000D03*
X7264400Y68503800D03*
X21056600Y57785000D03*
X21056600Y50368200D03*
X21056600Y60325000D03*
X21615400Y50800000D03*
X15265400Y63398400D03*
X16535400Y90678000D03*
D12*
X3098800Y37769800D02*
X3098800Y81203800D01*
X3937000Y36931600D02*
X3098800Y37769800D01*
X3937000Y15138400D02*
X3937000Y36931600D01*
X13131800Y13030200D02*
X11582400Y13030200D01*
X10007600Y14605000D02*
X4470400Y14605000D01*
X11582400Y13030200D02*
X10007600Y14605000D01*
X13766800Y13665200D02*
X13131800Y13030200D01*
X4470400Y14605000D02*
X3937000Y15138400D01*
X13614400Y20904200D02*
X13766800Y20751800D01*
X13766800Y20751800D02*
X13766800Y13665200D01*
X3098800Y81203800D02*
X5105400Y83210400D01*
X3454400Y37944574D02*
X3719587Y37679387D01*
X3454400Y73533000D02*
X3454400Y37944574D01*
X5328894Y45059600D02*
X4521200Y45867294D01*
X8102600Y45059600D02*
X5328894Y45059600D01*
X17272000Y47625000D02*
X15875000Y46228000D01*
X7162800Y35102800D02*
X5715000Y33655000D01*
X7162800Y36880800D02*
X7162800Y35102800D01*
X6629400Y37414200D02*
X7162800Y36880800D01*
X4165600Y51343612D02*
X4165600Y38277800D01*
X4292600Y37106374D02*
X3719587Y37679387D01*
X5323788Y52501800D02*
X4165600Y51343612D01*
X9448800Y52501800D02*
X5323788Y52501800D01*
X3810000Y51658494D02*
X3810000Y38100000D01*
X5097806Y52946300D02*
X3810000Y51658494D01*
X12192000Y57785000D02*
X7353300Y52946300D01*
X5029200Y37414200D02*
X6629400Y37414200D01*
X7353300Y52946300D02*
X5097806Y52946300D01*
X12192000Y55245000D02*
X9448800Y52501800D01*
X4521200Y45867294D02*
X4521200Y50241200D01*
X16243300Y74536300D02*
X17272000Y75565000D01*
X3683000Y73761600D02*
X3454400Y73533000D01*
X4902200Y78079600D02*
X6858000Y78079600D01*
X6858000Y78079600D02*
X10401300Y74536300D01*
X4203700Y73545918D02*
X4203700Y77381100D01*
X4521200Y50241200D02*
X5715000Y51435000D01*
X3810000Y38100000D02*
X5715000Y36195000D01*
X3810000Y73152218D02*
X4203700Y73545918D01*
X10401300Y74536300D02*
X16243300Y74536300D01*
X4165600Y38277800D02*
X5029200Y37414200D01*
X5715000Y59055000D02*
X3810000Y60960000D01*
X9271000Y46228000D02*
X8102600Y45059600D01*
X3810000Y60960000D02*
X3810000Y73152218D01*
X15875000Y46228000D02*
X9271000Y46228000D01*
X4203700Y77381100D02*
X4902200Y78079600D01*
X20904200Y49580800D02*
X20726400Y49758600D01*
X20904200Y41097200D02*
X20904200Y49580800D01*
X17272000Y37465000D02*
X20904200Y41097200D01*
X9575800Y43815000D02*
X13614400Y43815000D01*
X14135100Y39890700D02*
X14135100Y44030682D01*
X14579600Y14351000D02*
X14579600Y39446200D01*
X22733000Y12573000D02*
X16357600Y12573000D01*
X16357600Y12573000D02*
X14579600Y14351000D01*
X14579600Y39446200D02*
X14135100Y39890700D01*
X13080782Y45085000D02*
X12192000Y45085000D01*
X9122486Y41372714D02*
X9055100Y41372714D01*
X9220200Y41275000D02*
X9122486Y41372714D01*
X14135100Y44030682D02*
X13080782Y45085000D01*
X23495000Y13335000D02*
X22733000Y12573000D01*
X13589000Y41275000D02*
X9220200Y41275000D01*
X9194800Y19354800D02*
X9194800Y27152600D01*
X5715000Y15875000D02*
X9194800Y19354800D01*
X13589000Y38760400D02*
X8699500Y38760400D01*
X8661400Y21361400D02*
X8661400Y27584400D01*
X5715000Y18415000D02*
X8661400Y21361400D01*
X8128000Y23368000D02*
X8128000Y28016200D01*
X5715000Y20955000D02*
X8128000Y23368000D01*
X7975600Y33655000D02*
X13589000Y33655000D01*
X8686800Y34925000D02*
X8331200Y35280600D01*
X12192000Y34925000D02*
X8686800Y34925000D01*
X24841200Y80721200D02*
X23495000Y79375000D01*
X24841200Y82550000D02*
X24841200Y80721200D01*
X24180800Y83210400D02*
X24841200Y82550000D01*
X5105400Y83210400D02*
X24180800Y83210400D01*
X10541000Y16256000D02*
X12192000Y14605000D01*
X10541000Y27228800D02*
X10541000Y16256000D01*
X9194800Y28575000D02*
X10541000Y27228800D01*
X5715000Y28575000D02*
X9194800Y28575000D01*
X7691094Y30581600D02*
X7442200Y30581600D01*
X10922000Y27350694D02*
X7691094Y30581600D01*
X10922000Y18415000D02*
X10922000Y27350694D01*
X12192000Y17145000D02*
X10922000Y18415000D01*
X16865600Y18415000D02*
X15824200Y18415000D01*
X18389600Y18415000D02*
X16865600Y18415000D01*
X18465800Y18491200D02*
X18389600Y18415000D01*
X22199600Y22225000D02*
X18465800Y18491200D01*
X24231600Y22225000D02*
X22199600Y22225000D01*
D13*
X14173200Y14198600D02*
X14173200Y30403800D01*
X14173200Y30403800D02*
X12192000Y32385000D01*
X16205200Y12166600D02*
X14173200Y14198600D01*
X19583400Y12166600D02*
X16205200Y12166600D01*
X23495000Y8255000D02*
X19583400Y12166600D01*
D12*
X14732000Y40284400D02*
X14732000Y42545000D01*
X14732000Y39801800D02*
X14732000Y40284400D01*
X14935200Y39598600D02*
X14732000Y39801800D01*
X14935200Y14503400D02*
X14935200Y15138400D01*
X16510000Y12928600D02*
X16052800Y13385800D01*
X16052800Y13385800D02*
X14935200Y14503400D01*
X14935200Y15138400D02*
X14935200Y39598600D01*
X16865600Y12928600D02*
X16510000Y12928600D01*
X23495000Y15875000D02*
X20548600Y12928600D01*
X20548600Y12928600D02*
X16865600Y12928600D01*
X15290800Y40005000D02*
X15290800Y39166800D01*
X15290800Y14655800D02*
X15290800Y39166800D01*
X16662400Y13284200D02*
X15290800Y14655800D01*
X18364200Y13284200D02*
X16662400Y13284200D01*
X23495000Y18415000D02*
X18364200Y13284200D01*
X4292600Y27457400D02*
X4292600Y37106374D01*
X5715000Y26035000D02*
X4292600Y27457400D01*
X21666200Y27863800D02*
X21666200Y30530800D01*
X23495000Y26035000D02*
X21666200Y27863800D01*
X24739600Y27330400D02*
X23495000Y28575000D01*
X24739600Y22733000D02*
X24739600Y27330400D01*
X24231600Y22225000D02*
X24739600Y22733000D01*
X25146000Y54178200D02*
X25146000Y53035200D01*
X19989800Y55270400D02*
X24053800Y55270400D01*
X24053800Y55270400D02*
X25146000Y54178200D01*
X18745200Y56515000D02*
X19989800Y55270400D01*
X16002000Y56515000D02*
X18745200Y56515000D01*
X12192000Y60325000D02*
X16002000Y56515000D01*
X25146000Y28600400D02*
X25146000Y53035200D01*
X23952200Y52755800D02*
X24790400Y51917600D01*
X19761200Y52755800D02*
X23952200Y52755800D01*
X17272000Y55245000D02*
X19761200Y52755800D01*
X24790400Y51917600D02*
X24790400Y45110400D01*
X24790400Y45110400D02*
X23495000Y43815000D01*
X25146000Y22606000D02*
X25146000Y28600400D01*
X23495000Y20955000D02*
X25146000Y22606000D01*
X20421600Y53975000D02*
X23495000Y53975000D01*
X6985000Y67945000D02*
X5715000Y66675000D01*
X12192000Y67945000D02*
X6985000Y67945000D01*
X15214600Y66675000D02*
X23495000Y66675000D01*
X19812000Y70485000D02*
X17272000Y73025000D01*
X24231600Y70485000D02*
X19812000Y70485000D01*
X25095200Y69621400D02*
X24231600Y70485000D01*
X25095200Y63195200D02*
X25095200Y69621400D01*
X23495000Y61595000D02*
X25095200Y63195200D01*
X17272000Y70485000D02*
X18542000Y69215000D01*
X18542000Y69215000D02*
X23495000Y69215000D01*
X8026400Y69265800D02*
X7264400Y68503800D01*
X12903200Y69265800D02*
X8026400Y69265800D01*
X13843000Y71450200D02*
X13843000Y70205600D01*
X13843000Y70205600D02*
X12903200Y69265800D01*
X16637000Y74244200D02*
X13843000Y71450200D01*
X21005800Y74244200D02*
X16637000Y74244200D01*
X23495000Y71755000D02*
X21005800Y74244200D01*
X21056600Y57785000D02*
X17272000Y57785000D01*
X21259800Y50165000D02*
X21056600Y50368200D01*
X21259800Y39192200D02*
X21259800Y50165000D01*
X21259800Y35890200D02*
X21259800Y39192200D01*
X23495000Y33655000D02*
X21259800Y35890200D01*
X21056600Y60325000D02*
X17272000Y60325000D01*
X21945600Y58064400D02*
X23495000Y56515000D01*
X21945600Y60172382D02*
X21945600Y58064400D01*
X18033782Y64084200D02*
X21945600Y60172382D01*
X13512800Y64084200D02*
X18033782Y64084200D01*
X12192000Y65405000D02*
X13512800Y64084200D01*
X23495000Y59055000D02*
X23495000Y59182000D01*
X21615400Y39674800D02*
X21615400Y50800000D01*
X23495000Y59182000D02*
X17272000Y65405000D01*
X21615400Y38074600D02*
X21615400Y39674800D01*
X23495000Y36195000D02*
X21615400Y38074600D01*
X15773400Y23723600D02*
X17272000Y22225000D01*
X15773400Y30200600D02*
X15773400Y23723600D01*
X16687800Y31115000D02*
X15773400Y30200600D01*
X23495000Y31115000D02*
X16687800Y31115000D01*
X4165600Y72745600D02*
X5715000Y74295000D01*
X4165600Y66116200D02*
X4165600Y72745600D01*
X4851400Y65430400D02*
X4165600Y66116200D01*
X9423400Y62865000D02*
X6858000Y65430400D01*
X12192000Y62865000D02*
X9423400Y62865000D01*
X6858000Y65430400D02*
X4851400Y65430400D01*
X4826000Y57785000D02*
X4140200Y57099200D01*
X4140200Y57099200D02*
X4140200Y55549800D01*
X10312400Y61747400D02*
X6350000Y57785000D01*
X13766800Y61747400D02*
X10312400Y61747400D01*
X15265400Y63246000D02*
X13766800Y61747400D01*
X4140200Y55549800D02*
X5715000Y53975000D01*
X15265400Y63398400D02*
X15265400Y63246000D01*
X6350000Y57785000D02*
X4826000Y57785000D01*
X10591800Y61391800D02*
X5715000Y56515000D01*
X17272000Y62865000D02*
X15798800Y61391800D01*
X15798800Y61391800D02*
X10591800Y61391800D01*
X13690600Y46583600D02*
X17272000Y50165000D01*
X5715000Y46355000D02*
X5943600Y46583600D01*
X5943600Y46583600D02*
X13690600Y46583600D01*
X16002000Y51435000D02*
X23495000Y51435000D01*
X12192000Y47625000D02*
X16002000Y51435000D01*
X10922000Y31115000D02*
X12192000Y29845000D01*
X5715000Y31115000D02*
X10922000Y31115000D01*
X23495000Y23622000D02*
X23495000Y23495000D01*
X17272000Y29845000D02*
X23495000Y23622000D01*
X12192000Y70485000D02*
X5842000Y76835000D01*
X5842000Y76835000D02*
X5715000Y76835000D01*
D13*
X18542000Y81915000D02*
X12192000Y75565000D01*
X23495000Y81915000D02*
X18542000Y81915000D01*
G04 #@! TA.AperFunction,Conductor*
G36*
X11341343Y61027835D02*
G01*
X11371407Y60975764D01*
X11360966Y60916550D01*
X11352791Y60904738D01*
X11342722Y60892470D01*
X11248335Y60715884D01*
X11248333Y60715880D01*
X11190209Y60524274D01*
X11190208Y60524272D01*
X11190208Y60524269D01*
X11170582Y60325000D01*
X11190208Y60125731D01*
X11248333Y59934120D01*
X11342722Y59757531D01*
X11469748Y59602748D01*
X11624531Y59475722D01*
X11801120Y59381333D01*
X11992731Y59323208D01*
X12192000Y59303582D01*
X12391269Y59323208D01*
X12582880Y59381333D01*
X12582886Y59381337D01*
X12583979Y59381668D01*
X12644017Y59378391D01*
X12671651Y59359708D01*
X15747232Y56284126D01*
X15749823Y56281298D01*
X15777861Y56247883D01*
X15815650Y56226066D01*
X15818885Y56224005D01*
X15854634Y56198973D01*
X15858276Y56197998D01*
X15879474Y56189217D01*
X15882739Y56187332D01*
X15925709Y56179756D01*
X15929455Y56178925D01*
X15947266Y56174154D01*
X15971609Y56167630D01*
X16008796Y56170884D01*
X16015082Y56171433D01*
X16018914Y56171600D01*
X16553084Y56171600D01*
X16609585Y56151035D01*
X16639649Y56098964D01*
X16629208Y56039750D01*
X16608849Y56015755D01*
X16567054Y55981455D01*
X16549750Y55967254D01*
X16549746Y55967250D01*
X16422722Y55812470D01*
X16328335Y55635884D01*
X16328333Y55635880D01*
X16270209Y55444274D01*
X16270208Y55444272D01*
X16270208Y55444269D01*
X16250582Y55245000D01*
X16270208Y55045731D01*
X16270208Y55045729D01*
X16270209Y55045727D01*
X16285167Y54996418D01*
X16328333Y54854120D01*
X16422722Y54677531D01*
X16549748Y54522748D01*
X16704531Y54395722D01*
X16881120Y54301333D01*
X17072731Y54243208D01*
X17272000Y54223582D01*
X17471269Y54243208D01*
X17662880Y54301333D01*
X17662886Y54301337D01*
X17663979Y54301668D01*
X17724017Y54298391D01*
X17751651Y54279708D01*
X19506432Y52524926D01*
X19509023Y52522098D01*
X19537062Y52488683D01*
X19574852Y52466865D01*
X19578089Y52464803D01*
X19613832Y52439775D01*
X19613834Y52439774D01*
X19617468Y52438801D01*
X19638675Y52430017D01*
X19641939Y52428132D01*
X19684943Y52420550D01*
X19688660Y52419726D01*
X19730809Y52408431D01*
X19768863Y52411761D01*
X19774270Y52412233D01*
X19778102Y52412400D01*
X22837984Y52412400D01*
X22894485Y52391835D01*
X22924549Y52339764D01*
X22914108Y52280550D01*
X22893748Y52256554D01*
X22840518Y52212869D01*
X22772750Y52157254D01*
X22772746Y52157250D01*
X22645722Y52002470D01*
X22550790Y51824864D01*
X22506019Y51784729D01*
X22473269Y51778400D01*
X17981495Y51778400D01*
X17924994Y51798965D01*
X17894930Y51851036D01*
X17893701Y51870612D01*
X17895249Y51902146D01*
X17532085Y52265309D01*
X17549470Y52273248D01*
X17659869Y52368910D01*
X17709878Y52446727D01*
X18074853Y52081752D01*
X18120859Y52137809D01*
X18215203Y52314314D01*
X18273297Y52505823D01*
X18292915Y52705000D01*
X18273297Y52904178D01*
X18215203Y53095687D01*
X18120859Y53272193D01*
X18074853Y53328250D01*
X17709878Y52963275D01*
X17659869Y53041090D01*
X17549470Y53136752D01*
X17532083Y53144692D01*
X17895248Y53507856D01*
X17839192Y53553860D01*
X17662686Y53648204D01*
X17471177Y53706298D01*
X17272000Y53725916D01*
X17072822Y53706298D01*
X16881313Y53648204D01*
X16704808Y53553861D01*
X16648750Y53507856D01*
X17011914Y53144692D01*
X16994530Y53136752D01*
X16884131Y53041090D01*
X16834121Y52963273D01*
X16469144Y53328250D01*
X16423139Y53272192D01*
X16328796Y53095687D01*
X16270702Y52904178D01*
X16251084Y52705000D01*
X16270702Y52505823D01*
X16328796Y52314314D01*
X16423140Y52137808D01*
X16469144Y52081752D01*
X16834120Y52446729D01*
X16884131Y52368910D01*
X16994530Y52273248D01*
X17011913Y52265310D01*
X16648749Y51902146D01*
X16650299Y51870613D01*
X16632532Y51813171D01*
X16581998Y51780589D01*
X16562505Y51778400D01*
X16018900Y51778400D01*
X16015085Y51778567D01*
X15997358Y51780118D01*
X15971611Y51782371D01*
X15929459Y51771077D01*
X15925717Y51770248D01*
X15882743Y51762669D01*
X15882741Y51762669D01*
X15882739Y51762668D01*
X15882737Y51762668D01*
X15882737Y51762667D01*
X15879467Y51760779D01*
X15858288Y51752007D01*
X15854636Y51751028D01*
X15854634Y51751028D01*
X15818878Y51725992D01*
X15815646Y51723933D01*
X15777865Y51702119D01*
X15777860Y51702115D01*
X15749822Y51668702D01*
X15747231Y51665875D01*
X12671651Y48590294D01*
X12617157Y48564883D01*
X12583980Y48568334D01*
X12391275Y48626791D01*
X12391270Y48626792D01*
X12391269Y48626792D01*
X12192000Y48646418D01*
X11992731Y48626792D01*
X11992728Y48626792D01*
X11992726Y48626791D01*
X11801120Y48568667D01*
X11801116Y48568665D01*
X11624530Y48474278D01*
X11469750Y48347254D01*
X11469746Y48347250D01*
X11342722Y48192470D01*
X11248335Y48015884D01*
X11248333Y48015880D01*
X11190209Y47824274D01*
X11190208Y47824272D01*
X11190208Y47824269D01*
X11170582Y47625000D01*
X11190208Y47425731D01*
X11248333Y47234120D01*
X11296709Y47143615D01*
X11343361Y47056336D01*
X11351859Y46996812D01*
X11320108Y46945752D01*
X11265840Y46927000D01*
X6602134Y46927000D01*
X6545633Y46947565D01*
X6534186Y46959137D01*
X6500949Y46999636D01*
X6437252Y47077252D01*
X6282469Y47204278D01*
X6105880Y47298667D01*
X5993398Y47332789D01*
X5914273Y47356791D01*
X5914271Y47356792D01*
X5914269Y47356792D01*
X5715000Y47376418D01*
X5515731Y47356792D01*
X5515728Y47356792D01*
X5515726Y47356791D01*
X5324120Y47298667D01*
X5324116Y47298665D01*
X5147530Y47204278D01*
X5008263Y47089985D01*
X4951541Y47070038D01*
X4895267Y47091218D01*
X4865774Y47143615D01*
X4864600Y47157933D01*
X4864600Y48092068D01*
X4885165Y48148569D01*
X4937236Y48178633D01*
X4996450Y48168192D01*
X5008257Y48160020D01*
X5147531Y48045722D01*
X5324120Y47951333D01*
X5515731Y47893208D01*
X5715000Y47873582D01*
X5914269Y47893208D01*
X6105880Y47951333D01*
X6282469Y48045722D01*
X6437252Y48172748D01*
X6564278Y48327531D01*
X6658667Y48504120D01*
X6716792Y48695731D01*
X6736418Y48895000D01*
X6716792Y49094269D01*
X6658667Y49285880D01*
X6564278Y49462469D01*
X6437252Y49617252D01*
X6282469Y49744278D01*
X6105880Y49838667D01*
X5993398Y49872789D01*
X5914273Y49896791D01*
X5914271Y49896792D01*
X5914269Y49896792D01*
X5715000Y49916418D01*
X5515731Y49896792D01*
X5515728Y49896792D01*
X5515726Y49896791D01*
X5324120Y49838667D01*
X5324116Y49838665D01*
X5147530Y49744278D01*
X5008263Y49629985D01*
X4951541Y49610038D01*
X4895267Y49631218D01*
X4865774Y49683615D01*
X4864600Y49697933D01*
X4864600Y50062550D01*
X4885165Y50119051D01*
X4890334Y50124694D01*
X4930640Y50165000D01*
X11171084Y50165000D01*
X11190702Y49965823D01*
X11248796Y49774314D01*
X11343140Y49597808D01*
X11389144Y49541752D01*
X11754120Y49906729D01*
X11804131Y49828910D01*
X11914530Y49733248D01*
X11931913Y49725310D01*
X11568750Y49362147D01*
X11624807Y49316141D01*
X11801313Y49221797D01*
X11992822Y49163703D01*
X12192000Y49144085D01*
X12391177Y49163703D01*
X12582686Y49221797D01*
X12759191Y49316141D01*
X12815248Y49362147D01*
X12452085Y49725309D01*
X12469470Y49733248D01*
X12579869Y49828910D01*
X12629878Y49906727D01*
X12994853Y49541752D01*
X13040859Y49597809D01*
X13135203Y49774314D01*
X13193297Y49965823D01*
X13212915Y50165000D01*
X13193297Y50364178D01*
X13135203Y50555687D01*
X13040859Y50732193D01*
X12994853Y50788250D01*
X12629878Y50423275D01*
X12579869Y50501090D01*
X12469470Y50596752D01*
X12452083Y50604692D01*
X12815248Y50967856D01*
X12759192Y51013860D01*
X12582686Y51108204D01*
X12391177Y51166298D01*
X12192000Y51185916D01*
X11992822Y51166298D01*
X11801313Y51108204D01*
X11624808Y51013861D01*
X11568750Y50967856D01*
X11931914Y50604692D01*
X11914530Y50596752D01*
X11804131Y50501090D01*
X11754121Y50423273D01*
X11389144Y50788250D01*
X11343139Y50732192D01*
X11248796Y50555687D01*
X11190702Y50364178D01*
X11171084Y50165000D01*
X4930640Y50165000D01*
X5235348Y50469708D01*
X5289840Y50495118D01*
X5323017Y50491667D01*
X5515724Y50433210D01*
X5515731Y50433208D01*
X5715000Y50413582D01*
X5914269Y50433208D01*
X6105880Y50491333D01*
X6282469Y50585722D01*
X6437252Y50712748D01*
X6564278Y50867531D01*
X6658667Y51044120D01*
X6716792Y51235731D01*
X6736418Y51435000D01*
X6716792Y51634269D01*
X6658667Y51825880D01*
X6564278Y52002469D01*
X6554208Y52014739D01*
X6534263Y52071461D01*
X6555444Y52127733D01*
X6607841Y52157226D01*
X6622158Y52158400D01*
X9431900Y52158400D01*
X9435714Y52158234D01*
X9471454Y52155107D01*
X9479189Y52154430D01*
X9479189Y52154431D01*
X9479191Y52154430D01*
X9521349Y52165728D01*
X9525071Y52166553D01*
X9568061Y52174132D01*
X9571320Y52176015D01*
X9592527Y52184798D01*
X9592532Y52184800D01*
X9596166Y52185773D01*
X9631927Y52210815D01*
X9635136Y52212860D01*
X9672938Y52234683D01*
X9700983Y52268107D01*
X9703569Y52270929D01*
X10137640Y52705000D01*
X11171084Y52705000D01*
X11190702Y52505823D01*
X11248796Y52314314D01*
X11343140Y52137808D01*
X11389144Y52081752D01*
X11754120Y52446729D01*
X11804131Y52368910D01*
X11914530Y52273248D01*
X11931913Y52265310D01*
X11568750Y51902147D01*
X11624807Y51856141D01*
X11801313Y51761797D01*
X11992822Y51703703D01*
X12192000Y51684085D01*
X12391177Y51703703D01*
X12582686Y51761797D01*
X12759191Y51856141D01*
X12815248Y51902147D01*
X12452085Y52265309D01*
X12469470Y52273248D01*
X12579869Y52368910D01*
X12629878Y52446727D01*
X12994853Y52081752D01*
X13040859Y52137809D01*
X13135203Y52314314D01*
X13193297Y52505823D01*
X13212915Y52705000D01*
X13193297Y52904178D01*
X13135203Y53095687D01*
X13040859Y53272193D01*
X12994853Y53328250D01*
X12629878Y52963275D01*
X12579869Y53041090D01*
X12469470Y53136752D01*
X12452083Y53144692D01*
X12815248Y53507856D01*
X12759192Y53553860D01*
X12582686Y53648204D01*
X12391177Y53706298D01*
X12192000Y53725916D01*
X11992822Y53706298D01*
X11801313Y53648204D01*
X11624808Y53553861D01*
X11568750Y53507856D01*
X11931914Y53144692D01*
X11914530Y53136752D01*
X11804131Y53041090D01*
X11754121Y52963273D01*
X11389144Y53328250D01*
X11343139Y53272192D01*
X11248796Y53095687D01*
X11190702Y52904178D01*
X11171084Y52705000D01*
X10137640Y52705000D01*
X10705350Y53272710D01*
X11712347Y54279708D01*
X11766840Y54305118D01*
X11800017Y54301667D01*
X11992724Y54243210D01*
X11992731Y54243208D01*
X12192000Y54223582D01*
X12391269Y54243208D01*
X12582880Y54301333D01*
X12759469Y54395722D01*
X12914252Y54522748D01*
X13041278Y54677531D01*
X13135667Y54854120D01*
X13193792Y55045731D01*
X13213418Y55245000D01*
X13193792Y55444269D01*
X13135667Y55635880D01*
X13041278Y55812469D01*
X12914252Y55967252D01*
X12759469Y56094278D01*
X12582880Y56188667D01*
X12459593Y56226066D01*
X12391273Y56246791D01*
X12391271Y56246792D01*
X12391269Y56246792D01*
X12192000Y56266418D01*
X11992731Y56246792D01*
X11992728Y56246792D01*
X11992726Y56246791D01*
X11801120Y56188667D01*
X11801116Y56188665D01*
X11624530Y56094278D01*
X11469750Y55967254D01*
X11469746Y55967250D01*
X11342722Y55812470D01*
X11248335Y55635884D01*
X11248333Y55635880D01*
X11190209Y55444274D01*
X11190208Y55444272D01*
X11190208Y55444269D01*
X11175643Y55296384D01*
X11170582Y55245000D01*
X11190209Y55045725D01*
X11248666Y54853020D01*
X11245388Y54792982D01*
X11226706Y54765349D01*
X9332304Y52870945D01*
X9277810Y52845534D01*
X9270149Y52845200D01*
X7950051Y52845200D01*
X7893550Y52865765D01*
X7863486Y52917836D01*
X7873927Y52977050D01*
X7887896Y52995255D01*
X8722912Y53830271D01*
X11712347Y56819708D01*
X11766840Y56845118D01*
X11800017Y56841667D01*
X11924400Y56803936D01*
X11992731Y56783208D01*
X12192000Y56763582D01*
X12391269Y56783208D01*
X12582880Y56841333D01*
X12759469Y56935722D01*
X12914252Y57062748D01*
X13041278Y57217531D01*
X13135667Y57394120D01*
X13193792Y57585731D01*
X13213418Y57785000D01*
X13193792Y57984269D01*
X13135667Y58175880D01*
X13041278Y58352469D01*
X12914252Y58507252D01*
X12759469Y58634278D01*
X12582880Y58728667D01*
X12422072Y58777448D01*
X12391273Y58786791D01*
X12391271Y58786792D01*
X12391269Y58786792D01*
X12192000Y58806418D01*
X11992731Y58786792D01*
X11992728Y58786792D01*
X11992726Y58786791D01*
X11801120Y58728667D01*
X11801116Y58728665D01*
X11624530Y58634278D01*
X11469750Y58507254D01*
X11469746Y58507250D01*
X11342722Y58352470D01*
X11248335Y58175884D01*
X11248333Y58175880D01*
X11190209Y57984274D01*
X11190208Y57984272D01*
X11190208Y57984269D01*
X11170582Y57785000D01*
X11184836Y57640271D01*
X11190209Y57585725D01*
X11248666Y57393020D01*
X11245388Y57332982D01*
X11226706Y57305349D01*
X7236804Y53315445D01*
X7182310Y53290034D01*
X7174649Y53289700D01*
X6647948Y53289700D01*
X6591447Y53310265D01*
X6561383Y53362336D01*
X6570426Y53419035D01*
X6658667Y53584120D01*
X6716792Y53775731D01*
X6736418Y53975000D01*
X6716792Y54174269D01*
X6658667Y54365880D01*
X6564278Y54542469D01*
X6437252Y54697252D01*
X6282469Y54824278D01*
X6105880Y54918667D01*
X5988167Y54954375D01*
X5914273Y54976791D01*
X5914271Y54976792D01*
X5914269Y54976792D01*
X5715000Y54996418D01*
X5515731Y54976792D01*
X5515729Y54976792D01*
X5515724Y54976791D01*
X5323018Y54918334D01*
X5262980Y54921612D01*
X5235347Y54940294D01*
X4509345Y55666296D01*
X4483934Y55720790D01*
X4483600Y55728451D01*
X4483600Y56920549D01*
X4504165Y56977050D01*
X4509345Y56982704D01*
X4609114Y57082473D01*
X4774938Y57248298D01*
X4829431Y57273707D01*
X4887509Y57258146D01*
X4921997Y57208892D01*
X4916757Y57148994D01*
X4905040Y57130380D01*
X4865724Y57082473D01*
X4771335Y56905884D01*
X4771333Y56905880D01*
X4713209Y56714274D01*
X4713208Y56714272D01*
X4713208Y56714269D01*
X4693582Y56515000D01*
X4713208Y56315731D01*
X4771333Y56124120D01*
X4865722Y55947531D01*
X4992748Y55792748D01*
X5147531Y55665722D01*
X5324120Y55571333D01*
X5515731Y55513208D01*
X5715000Y55493582D01*
X5914269Y55513208D01*
X6105880Y55571333D01*
X6282469Y55665722D01*
X6437252Y55792748D01*
X6564278Y55947531D01*
X6658667Y56124120D01*
X6716792Y56315731D01*
X6736418Y56515000D01*
X6716792Y56714269D01*
X6701833Y56763583D01*
X6658333Y56906983D01*
X6661611Y56967021D01*
X6680290Y56994651D01*
X10708296Y61022655D01*
X10762790Y61048066D01*
X10770451Y61048400D01*
X11284842Y61048400D01*
X11341343Y61027835D01*
G37*
G04 #@! TD.AperFunction*
G04 #@! TA.AperFunction,Conductor*
G36*
X26003101Y93958935D02*
G01*
X26033165Y93906864D01*
X26034500Y93891600D01*
X26034500Y723400D01*
X26013935Y666899D01*
X25961864Y636835D01*
X25946600Y635500D01*
X723400Y635500D01*
X666899Y656065D01*
X636835Y708136D01*
X635500Y723400D01*
X635500Y5715000D01*
X4693582Y5715000D01*
X4713208Y5515731D01*
X4771333Y5324120D01*
X4865722Y5147531D01*
X4992748Y4992748D01*
X5147531Y4865722D01*
X5324120Y4771333D01*
X5515731Y4713208D01*
X5715000Y4693582D01*
X5914269Y4713208D01*
X6105880Y4771333D01*
X6282469Y4865722D01*
X6437252Y4992748D01*
X6564278Y5147531D01*
X6658667Y5324120D01*
X6716792Y5515731D01*
X6736418Y5715000D01*
X22474084Y5715000D01*
X22493702Y5515823D01*
X22551796Y5324314D01*
X22646140Y5147808D01*
X22692144Y5091752D01*
X23057120Y5456729D01*
X23107131Y5378910D01*
X23217530Y5283248D01*
X23234913Y5275310D01*
X22871750Y4912147D01*
X22927807Y4866141D01*
X23104313Y4771797D01*
X23295822Y4713703D01*
X23495000Y4694085D01*
X23694177Y4713703D01*
X23885686Y4771797D01*
X24062191Y4866141D01*
X24118248Y4912147D01*
X23755085Y5275309D01*
X23772470Y5283248D01*
X23882869Y5378910D01*
X23932878Y5456727D01*
X24297853Y5091752D01*
X24343859Y5147809D01*
X24438203Y5324314D01*
X24496297Y5515823D01*
X24515915Y5715000D01*
X24496297Y5914178D01*
X24438203Y6105687D01*
X24343859Y6282193D01*
X24297853Y6338250D01*
X23932878Y5973275D01*
X23882869Y6051090D01*
X23772470Y6146752D01*
X23755083Y6154692D01*
X24118248Y6517856D01*
X24062192Y6563860D01*
X23885686Y6658204D01*
X23694177Y6716298D01*
X23495000Y6735916D01*
X23295822Y6716298D01*
X23104313Y6658204D01*
X22927808Y6563861D01*
X22871750Y6517856D01*
X23234914Y6154692D01*
X23217530Y6146752D01*
X23107131Y6051090D01*
X23057121Y5973273D01*
X22692144Y6338250D01*
X22646139Y6282192D01*
X22551796Y6105687D01*
X22493702Y5914178D01*
X22474084Y5715000D01*
X6736418Y5715000D01*
X6716792Y5914269D01*
X6658667Y6105880D01*
X6564278Y6282469D01*
X6437252Y6437252D01*
X6282469Y6564278D01*
X6105880Y6658667D01*
X5993398Y6692789D01*
X5914273Y6716791D01*
X5914271Y6716792D01*
X5914269Y6716792D01*
X5715000Y6736418D01*
X5515731Y6716792D01*
X5515728Y6716792D01*
X5515726Y6716791D01*
X5324120Y6658667D01*
X5324116Y6658665D01*
X5147530Y6564278D01*
X4992750Y6437254D01*
X4992746Y6437250D01*
X4865722Y6282470D01*
X4771335Y6105884D01*
X4771333Y6105880D01*
X4713209Y5914274D01*
X4713208Y5914272D01*
X4713208Y5914269D01*
X4693582Y5715000D01*
X635500Y5715000D01*
X635500Y8255000D01*
X4693582Y8255000D01*
X4713208Y8055731D01*
X4771333Y7864120D01*
X4865722Y7687531D01*
X4992748Y7532748D01*
X5147531Y7405722D01*
X5324120Y7311333D01*
X5515731Y7253208D01*
X5715000Y7233582D01*
X5914269Y7253208D01*
X6105880Y7311333D01*
X6282469Y7405722D01*
X6437252Y7532748D01*
X6564278Y7687531D01*
X6658667Y7864120D01*
X6716792Y8055731D01*
X6736418Y8255000D01*
X6716792Y8454269D01*
X6658667Y8645880D01*
X6564278Y8822469D01*
X6437252Y8977252D01*
X6282469Y9104278D01*
X6105880Y9198667D01*
X5993244Y9232835D01*
X5914273Y9256791D01*
X5914271Y9256792D01*
X5914269Y9256792D01*
X5715000Y9276418D01*
X5515731Y9256792D01*
X5515728Y9256792D01*
X5515726Y9256791D01*
X5324120Y9198667D01*
X5324116Y9198665D01*
X5147530Y9104278D01*
X4992750Y8977254D01*
X4992746Y8977250D01*
X4865722Y8822470D01*
X4771335Y8645884D01*
X4771333Y8645880D01*
X4713209Y8454274D01*
X4713208Y8454272D01*
X4713208Y8454269D01*
X4693582Y8255000D01*
X635500Y8255000D01*
X635500Y10795000D01*
X4693582Y10795000D01*
X4713208Y10595731D01*
X4771333Y10404120D01*
X4865722Y10227531D01*
X4992748Y10072748D01*
X5147531Y9945722D01*
X5324120Y9851333D01*
X5515731Y9793208D01*
X5715000Y9773582D01*
X5914269Y9793208D01*
X6105880Y9851333D01*
X6282469Y9945722D01*
X6437252Y10072748D01*
X6564278Y10227531D01*
X6658667Y10404120D01*
X6716792Y10595731D01*
X6736418Y10795000D01*
X6716792Y10994269D01*
X6658667Y11185880D01*
X6564278Y11362469D01*
X6437252Y11517252D01*
X6282469Y11644278D01*
X6105880Y11738667D01*
X5960411Y11782795D01*
X5914273Y11796791D01*
X5914271Y11796792D01*
X5914269Y11796792D01*
X5715000Y11816418D01*
X5515731Y11796792D01*
X5515728Y11796792D01*
X5515726Y11796791D01*
X5324120Y11738667D01*
X5324116Y11738665D01*
X5147530Y11644278D01*
X4992750Y11517254D01*
X4992746Y11517250D01*
X4865722Y11362470D01*
X4771335Y11185884D01*
X4771333Y11185880D01*
X4713209Y10994274D01*
X4713208Y10994272D01*
X4713208Y10994269D01*
X4693582Y10795000D01*
X635500Y10795000D01*
X635500Y37739409D01*
X2751429Y37739409D01*
X2762722Y37697262D01*
X2763552Y37693519D01*
X2771131Y37650539D01*
X2773016Y37647275D01*
X2781795Y37626083D01*
X2782773Y37622432D01*
X2807803Y37586687D01*
X2809864Y37583452D01*
X2831684Y37545661D01*
X2865098Y37517623D01*
X2867926Y37515032D01*
X3567855Y36815104D01*
X3593266Y36760610D01*
X3593600Y36752949D01*
X3593600Y15155300D01*
X3593433Y15151486D01*
X3591882Y15133759D01*
X3589629Y15108011D01*
X3589629Y15108009D01*
X3600922Y15065862D01*
X3601752Y15062119D01*
X3609331Y15019139D01*
X3611216Y15015875D01*
X3619995Y14994683D01*
X3620973Y14991032D01*
X3646003Y14955287D01*
X3648064Y14952052D01*
X3669884Y14914261D01*
X3703298Y14886223D01*
X3706126Y14883632D01*
X4215632Y14374126D01*
X4218223Y14371298D01*
X4246262Y14337883D01*
X4284049Y14316067D01*
X4287277Y14314011D01*
X4323034Y14288973D01*
X4326669Y14288000D01*
X4347880Y14279214D01*
X4351139Y14277332D01*
X4394128Y14269752D01*
X4397863Y14268923D01*
X4403512Y14267410D01*
X4440010Y14257630D01*
X4477197Y14260884D01*
X4483483Y14261433D01*
X4487315Y14261600D01*
X4996084Y14261600D01*
X5052585Y14241035D01*
X5082649Y14188964D01*
X5072208Y14129750D01*
X5051849Y14105755D01*
X5010054Y14071455D01*
X4992750Y14057254D01*
X4992746Y14057250D01*
X4865722Y13902470D01*
X4771335Y13725884D01*
X4771333Y13725880D01*
X4713209Y13534274D01*
X4713208Y13534272D01*
X4713208Y13534269D01*
X4693582Y13335000D01*
X4713208Y13135731D01*
X4771333Y12944120D01*
X4865722Y12767531D01*
X4992748Y12612748D01*
X5147531Y12485722D01*
X5324120Y12391333D01*
X5515731Y12333208D01*
X5715000Y12313582D01*
X5914269Y12333208D01*
X6105880Y12391333D01*
X6282469Y12485722D01*
X6437252Y12612748D01*
X6564278Y12767531D01*
X6658667Y12944120D01*
X6716792Y13135731D01*
X6736418Y13335000D01*
X6716792Y13534269D01*
X6658667Y13725880D01*
X6564278Y13902469D01*
X6437252Y14057252D01*
X6378152Y14105754D01*
X6347523Y14157492D01*
X6357317Y14216816D01*
X6402953Y14255966D01*
X6433916Y14261600D01*
X9828949Y14261600D01*
X9885450Y14241035D01*
X9891104Y14235855D01*
X11327632Y12799326D01*
X11330223Y12796498D01*
X11354530Y12767531D01*
X11358262Y12763083D01*
X11396045Y12741269D01*
X11396049Y12741267D01*
X11399277Y12739211D01*
X11435034Y12714173D01*
X11438669Y12713200D01*
X11459880Y12704414D01*
X11463139Y12702532D01*
X11506128Y12694952D01*
X11509863Y12694123D01*
X11515512Y12692610D01*
X11552010Y12682830D01*
X11589197Y12686084D01*
X11595483Y12686633D01*
X11599315Y12686800D01*
X13114900Y12686800D01*
X13118714Y12686634D01*
X13154454Y12683507D01*
X13162189Y12682830D01*
X13162189Y12682831D01*
X13162191Y12682830D01*
X13204349Y12694128D01*
X13208071Y12694953D01*
X13251061Y12702532D01*
X13254320Y12704415D01*
X13275527Y12713198D01*
X13275538Y12713201D01*
X13279166Y12714173D01*
X13314927Y12739215D01*
X13318136Y12741260D01*
X13355938Y12763083D01*
X13383983Y12796507D01*
X13386569Y12799329D01*
X13653695Y13066455D01*
X13997684Y13410445D01*
X14000493Y13413018D01*
X14033917Y13441062D01*
X14055740Y13478864D01*
X14057785Y13482073D01*
X14082827Y13517834D01*
X14083801Y13521471D01*
X14092586Y13542681D01*
X14094468Y13545939D01*
X14094468Y13545943D01*
X14094470Y13545945D01*
X14097099Y13553166D01*
X14099426Y13552319D01*
X14123969Y13594830D01*
X14180469Y13615396D01*
X14236971Y13594833D01*
X14242626Y13589652D01*
X15091008Y12741269D01*
X15901016Y11931261D01*
X15912447Y11917184D01*
X15920640Y11904644D01*
X15950027Y11881771D01*
X15954114Y11878162D01*
X15957789Y11874488D01*
X15957791Y11874486D01*
X15977100Y11860700D01*
X16021115Y11826442D01*
X16021117Y11826442D01*
X16027520Y11822976D01*
X16027266Y11822508D01*
X16028554Y11821845D01*
X16028788Y11822323D01*
X16035327Y11819127D01*
X16035330Y11819125D01*
X16088786Y11803211D01*
X16141539Y11785100D01*
X16141545Y11785100D01*
X16148724Y11783901D01*
X16148636Y11783377D01*
X16150065Y11783169D01*
X16150131Y11783696D01*
X16157353Y11782797D01*
X16157359Y11782795D01*
X16213084Y11785100D01*
X19388968Y11785100D01*
X19445469Y11764535D01*
X19451123Y11759355D01*
X22517165Y8693312D01*
X22542576Y8638818D01*
X22539125Y8605641D01*
X22493209Y8454276D01*
X22493208Y8454271D01*
X22493208Y8454269D01*
X22473582Y8255000D01*
X22493208Y8055731D01*
X22551333Y7864120D01*
X22645722Y7687531D01*
X22772748Y7532748D01*
X22927531Y7405722D01*
X23104120Y7311333D01*
X23295731Y7253208D01*
X23495000Y7233582D01*
X23694269Y7253208D01*
X23885880Y7311333D01*
X24062469Y7405722D01*
X24217252Y7532748D01*
X24344278Y7687531D01*
X24438667Y7864120D01*
X24496792Y8055731D01*
X24516418Y8255000D01*
X24496792Y8454269D01*
X24438667Y8645880D01*
X24344278Y8822469D01*
X24217252Y8977252D01*
X24062469Y9104278D01*
X23885880Y9198667D01*
X23773244Y9232835D01*
X23694273Y9256791D01*
X23694271Y9256792D01*
X23694269Y9256792D01*
X23495000Y9276418D01*
X23295731Y9256792D01*
X23295729Y9256792D01*
X23295724Y9256791D01*
X23144359Y9210875D01*
X23084321Y9214153D01*
X23056688Y9232835D01*
X21494523Y10795000D01*
X22473582Y10795000D01*
X22493208Y10595731D01*
X22551333Y10404120D01*
X22645722Y10227531D01*
X22772748Y10072748D01*
X22927531Y9945722D01*
X23104120Y9851333D01*
X23295731Y9793208D01*
X23495000Y9773582D01*
X23694269Y9793208D01*
X23885880Y9851333D01*
X24062469Y9945722D01*
X24217252Y10072748D01*
X24344278Y10227531D01*
X24438667Y10404120D01*
X24496792Y10595731D01*
X24516418Y10795000D01*
X24496792Y10994269D01*
X24438667Y11185880D01*
X24344278Y11362469D01*
X24217252Y11517252D01*
X24062469Y11644278D01*
X23885880Y11738667D01*
X23740411Y11782795D01*
X23694273Y11796791D01*
X23694271Y11796792D01*
X23694269Y11796792D01*
X23495000Y11816418D01*
X23295731Y11796792D01*
X23295728Y11796792D01*
X23295726Y11796791D01*
X23104120Y11738667D01*
X23104116Y11738665D01*
X22927530Y11644278D01*
X22772750Y11517254D01*
X22772746Y11517250D01*
X22645722Y11362470D01*
X22551335Y11185884D01*
X22551333Y11185880D01*
X22493209Y10994274D01*
X22493208Y10994272D01*
X22493208Y10994269D01*
X22473582Y10795000D01*
X21494523Y10795000D01*
X20209978Y12079545D01*
X20184567Y12134039D01*
X20200130Y12192117D01*
X20249383Y12226605D01*
X20272133Y12229600D01*
X22716100Y12229600D01*
X22719914Y12229434D01*
X22755654Y12226307D01*
X22763389Y12225630D01*
X22763389Y12225631D01*
X22763391Y12225630D01*
X22805549Y12236928D01*
X22809271Y12237753D01*
X22852261Y12245332D01*
X22855520Y12247215D01*
X22876727Y12255998D01*
X22876732Y12256000D01*
X22880366Y12256973D01*
X22916127Y12282015D01*
X22919336Y12284060D01*
X22957138Y12305883D01*
X22985183Y12339307D01*
X22987769Y12342129D01*
X23015347Y12369708D01*
X23069840Y12395118D01*
X23103017Y12391667D01*
X23295724Y12333210D01*
X23295731Y12333208D01*
X23495000Y12313582D01*
X23694269Y12333208D01*
X23885880Y12391333D01*
X24062469Y12485722D01*
X24217252Y12612748D01*
X24344278Y12767531D01*
X24438667Y12944120D01*
X24496792Y13135731D01*
X24516418Y13335000D01*
X24496792Y13534269D01*
X24438667Y13725880D01*
X24344278Y13902469D01*
X24217252Y14057252D01*
X24062469Y14184278D01*
X23885880Y14278667D01*
X23711098Y14331687D01*
X23694273Y14336791D01*
X23694271Y14336792D01*
X23694269Y14336792D01*
X23495000Y14356418D01*
X23295731Y14336792D01*
X23295728Y14336792D01*
X23295726Y14336791D01*
X23104120Y14278667D01*
X23104116Y14278665D01*
X22927530Y14184278D01*
X22772750Y14057254D01*
X22772746Y14057250D01*
X22645722Y13902470D01*
X22551335Y13725884D01*
X22551333Y13725880D01*
X22493209Y13534274D01*
X22493208Y13534272D01*
X22493208Y13534269D01*
X22473582Y13335000D01*
X22477761Y13292565D01*
X22493209Y13135725D01*
X22525337Y13029816D01*
X22522059Y12969779D01*
X22480957Y12925894D01*
X22441222Y12916400D01*
X21234251Y12916400D01*
X21177750Y12936965D01*
X21147686Y12989036D01*
X21158127Y13048250D01*
X21172096Y13066455D01*
X21627109Y13521468D01*
X23015347Y14909708D01*
X23069840Y14935118D01*
X23103017Y14931667D01*
X23295724Y14873210D01*
X23295731Y14873208D01*
X23495000Y14853582D01*
X23694269Y14873208D01*
X23885880Y14931333D01*
X24062469Y15025722D01*
X24217252Y15152748D01*
X24344278Y15307531D01*
X24438667Y15484120D01*
X24496792Y15675731D01*
X24516418Y15875000D01*
X24496792Y16074269D01*
X24438667Y16265880D01*
X24344278Y16442469D01*
X24217252Y16597252D01*
X24062469Y16724278D01*
X23885880Y16818667D01*
X23773398Y16852789D01*
X23694273Y16876791D01*
X23694271Y16876792D01*
X23694269Y16876792D01*
X23495000Y16896418D01*
X23295731Y16876792D01*
X23295728Y16876792D01*
X23295726Y16876791D01*
X23104120Y16818667D01*
X23104116Y16818665D01*
X22927530Y16724278D01*
X22772750Y16597254D01*
X22772746Y16597250D01*
X22645722Y16442470D01*
X22551335Y16265884D01*
X22551333Y16265880D01*
X22493209Y16074274D01*
X22493208Y16074272D01*
X22493208Y16074269D01*
X22486270Y16003823D01*
X22473582Y15875000D01*
X22493209Y15675725D01*
X22551666Y15483020D01*
X22548388Y15422982D01*
X22529706Y15395349D01*
X20432104Y13297745D01*
X20377610Y13272334D01*
X20369949Y13272000D01*
X19049851Y13272000D01*
X18993350Y13292565D01*
X18963286Y13344636D01*
X18973727Y13403850D01*
X18987696Y13422055D01*
X19971372Y14405731D01*
X23015347Y17449708D01*
X23069840Y17475118D01*
X23103017Y17471667D01*
X23295724Y17413210D01*
X23295731Y17413208D01*
X23495000Y17393582D01*
X23694269Y17413208D01*
X23885880Y17471333D01*
X24062469Y17565722D01*
X24217252Y17692748D01*
X24344278Y17847531D01*
X24438667Y18024120D01*
X24496792Y18215731D01*
X24516418Y18415000D01*
X24496792Y18614269D01*
X24438667Y18805880D01*
X24344278Y18982469D01*
X24217252Y19137252D01*
X24062469Y19264278D01*
X23885880Y19358667D01*
X23773398Y19392789D01*
X23694273Y19416791D01*
X23694271Y19416792D01*
X23694269Y19416792D01*
X23495000Y19436418D01*
X23295731Y19416792D01*
X23295728Y19416792D01*
X23295726Y19416791D01*
X23104120Y19358667D01*
X23104116Y19358665D01*
X22927530Y19264278D01*
X22772750Y19137254D01*
X22772746Y19137250D01*
X22645722Y18982470D01*
X22551335Y18805884D01*
X22551333Y18805880D01*
X22493209Y18614274D01*
X22493208Y18614272D01*
X22493208Y18614269D01*
X22473582Y18415000D01*
X22487900Y18269622D01*
X22493209Y18215725D01*
X22551666Y18023020D01*
X22548388Y17962982D01*
X22529706Y17935349D01*
X18247704Y13653345D01*
X18193210Y13627934D01*
X18185549Y13627600D01*
X17929016Y13627600D01*
X17872515Y13648165D01*
X17842451Y13700236D01*
X17852892Y13759450D01*
X17873251Y13783447D01*
X17994252Y13882748D01*
X18121278Y14037531D01*
X18215667Y14214120D01*
X18273792Y14405731D01*
X18293418Y14605000D01*
X18273792Y14804269D01*
X18215667Y14995880D01*
X18121278Y15172469D01*
X17994252Y15327252D01*
X17839469Y15454278D01*
X17662880Y15548667D01*
X17550398Y15582789D01*
X17471273Y15606791D01*
X17471271Y15606792D01*
X17471269Y15606792D01*
X17272000Y15626418D01*
X17072731Y15606792D01*
X17072728Y15606792D01*
X17072726Y15606791D01*
X16881120Y15548667D01*
X16881116Y15548665D01*
X16704530Y15454278D01*
X16549750Y15327254D01*
X16549746Y15327250D01*
X16422722Y15172470D01*
X16328335Y14995884D01*
X16328333Y14995880D01*
X16270209Y14804274D01*
X16270208Y14804272D01*
X16270208Y14804269D01*
X16250582Y14605000D01*
X16270208Y14405731D01*
X16270208Y14405729D01*
X16270209Y14405726D01*
X16274456Y14391725D01*
X16271176Y14331687D01*
X16230073Y14287804D01*
X16170378Y14280608D01*
X16128185Y14304056D01*
X15659945Y14772296D01*
X15634534Y14826790D01*
X15634200Y14834451D01*
X15634200Y17823401D01*
X15654765Y17879902D01*
X15706836Y17909966D01*
X15746865Y17907741D01*
X15751089Y17906500D01*
X15751090Y17906500D01*
X15897310Y17906500D01*
X15897311Y17906500D01*
X15897313Y17906501D01*
X15897315Y17906501D01*
X15928820Y17915752D01*
X16037611Y17947696D01*
X16160621Y18026750D01*
X16173196Y18041263D01*
X16225737Y18070496D01*
X16239626Y18071600D01*
X16553084Y18071600D01*
X16609585Y18051035D01*
X16639649Y17998964D01*
X16629208Y17939750D01*
X16608849Y17915755D01*
X16567054Y17881455D01*
X16549750Y17867254D01*
X16549746Y17867250D01*
X16422722Y17712470D01*
X16328335Y17535884D01*
X16328333Y17535880D01*
X16270209Y17344274D01*
X16270208Y17344272D01*
X16270208Y17344269D01*
X16250582Y17145000D01*
X16270208Y16945731D01*
X16328333Y16754120D01*
X16422722Y16577531D01*
X16549748Y16422748D01*
X16704531Y16295722D01*
X16881120Y16201333D01*
X17072731Y16143208D01*
X17272000Y16123582D01*
X17471269Y16143208D01*
X17662880Y16201333D01*
X17839469Y16295722D01*
X17994252Y16422748D01*
X18121278Y16577531D01*
X18215667Y16754120D01*
X18273792Y16945731D01*
X18293418Y17145000D01*
X18273792Y17344269D01*
X18215667Y17535880D01*
X18121278Y17712469D01*
X17994252Y17867252D01*
X17935152Y17915754D01*
X17904523Y17967492D01*
X17914317Y18026816D01*
X17959953Y18065966D01*
X17990916Y18071600D01*
X18372700Y18071600D01*
X18376514Y18071434D01*
X18412254Y18068307D01*
X18419989Y18067630D01*
X18419989Y18067631D01*
X18419991Y18067630D01*
X18462149Y18078928D01*
X18465871Y18079753D01*
X18508861Y18087332D01*
X18512120Y18089215D01*
X18533327Y18097998D01*
X18533332Y18098000D01*
X18536966Y18098973D01*
X18572727Y18124015D01*
X18575936Y18126060D01*
X18613738Y18147883D01*
X18641788Y18181314D01*
X18644363Y18184124D01*
X18687451Y18227212D01*
X18729864Y18269622D01*
X22316096Y21855855D01*
X22370590Y21881266D01*
X22378251Y21881600D01*
X22776084Y21881600D01*
X22832585Y21861035D01*
X22862649Y21808964D01*
X22852208Y21749750D01*
X22831849Y21725755D01*
X22790054Y21691455D01*
X22772750Y21677254D01*
X22772746Y21677250D01*
X22645722Y21522470D01*
X22551335Y21345884D01*
X22551333Y21345880D01*
X22493209Y21154274D01*
X22493208Y21154272D01*
X22493208Y21154269D01*
X22473582Y20955000D01*
X22493208Y20755731D01*
X22551333Y20564120D01*
X22645722Y20387531D01*
X22772748Y20232748D01*
X22927531Y20105722D01*
X23104120Y20011333D01*
X23295731Y19953208D01*
X23495000Y19933582D01*
X23694269Y19953208D01*
X23885880Y20011333D01*
X24062469Y20105722D01*
X24217252Y20232748D01*
X24344278Y20387531D01*
X24438667Y20564120D01*
X24496792Y20755731D01*
X24516418Y20955000D01*
X24496792Y21154269D01*
X24481833Y21203583D01*
X24438333Y21346983D01*
X24441611Y21407021D01*
X24460290Y21434651D01*
X25376884Y22351245D01*
X25379693Y22353818D01*
X25413117Y22381862D01*
X25434940Y22419664D01*
X25436985Y22422873D01*
X25462027Y22458634D01*
X25463001Y22462271D01*
X25471786Y22483481D01*
X25473668Y22486739D01*
X25481249Y22529738D01*
X25482071Y22533446D01*
X25493370Y22575610D01*
X25489567Y22619083D01*
X25489400Y22622915D01*
X25489400Y54161302D01*
X25489566Y54165114D01*
X25493370Y54208591D01*
X25484094Y54243208D01*
X25482076Y54250740D01*
X25481245Y54254485D01*
X25473668Y54297461D01*
X25471783Y54300725D01*
X25462999Y54321932D01*
X25462026Y54325566D01*
X25436993Y54361316D01*
X25434939Y54364539D01*
X25413117Y54402338D01*
X25379693Y54430384D01*
X25376872Y54432970D01*
X24308566Y55501276D01*
X24305981Y55504096D01*
X24277938Y55537517D01*
X24262419Y55546477D01*
X24240148Y55559336D01*
X24236913Y55561397D01*
X24201168Y55586427D01*
X24197517Y55587405D01*
X24176323Y55596185D01*
X24173061Y55598068D01*
X24173060Y55598069D01*
X24169732Y55599990D01*
X24131086Y55646052D01*
X24131088Y55706179D01*
X24157922Y55744059D01*
X24217252Y55792748D01*
X24344278Y55947531D01*
X24438667Y56124120D01*
X24496792Y56315731D01*
X24516418Y56515000D01*
X24496792Y56714269D01*
X24438667Y56905880D01*
X24344278Y57082469D01*
X24217252Y57237252D01*
X24062469Y57364278D01*
X23885880Y57458667D01*
X23725705Y57507256D01*
X23694273Y57516791D01*
X23694271Y57516792D01*
X23694269Y57516792D01*
X23495000Y57536418D01*
X23295731Y57516792D01*
X23295729Y57516792D01*
X23295724Y57516791D01*
X23103018Y57458334D01*
X23042980Y57461612D01*
X23015347Y57480294D01*
X22314745Y58180896D01*
X22289334Y58235390D01*
X22289000Y58243051D01*
X22289000Y59690149D01*
X22309565Y59746650D01*
X22361636Y59776714D01*
X22420850Y59766273D01*
X22439055Y59752304D01*
X22572861Y59618498D01*
X22598272Y59564004D01*
X22588228Y59514909D01*
X22551335Y59445886D01*
X22551334Y59445884D01*
X22493209Y59254274D01*
X22493208Y59254272D01*
X22493208Y59254269D01*
X22473582Y59055000D01*
X22493208Y58855731D01*
X22551333Y58664120D01*
X22645722Y58487531D01*
X22772748Y58332748D01*
X22927531Y58205722D01*
X23104120Y58111333D01*
X23295731Y58053208D01*
X23495000Y58033582D01*
X23694269Y58053208D01*
X23885880Y58111333D01*
X24062469Y58205722D01*
X24217252Y58332748D01*
X24344278Y58487531D01*
X24438667Y58664120D01*
X24496792Y58855731D01*
X24516418Y59055000D01*
X24496792Y59254269D01*
X24438667Y59445880D01*
X24344278Y59622469D01*
X24217252Y59777252D01*
X24062469Y59904278D01*
X23885880Y59998667D01*
X23773398Y60032789D01*
X23694273Y60056791D01*
X23694271Y60056792D01*
X23694269Y60056792D01*
X23495000Y60076418D01*
X23295731Y60056792D01*
X23295729Y60056792D01*
X23295724Y60056791D01*
X23295721Y60056790D01*
X23200458Y60027893D01*
X23140421Y60031171D01*
X23112788Y60049853D01*
X19027641Y64135000D01*
X22473582Y64135000D01*
X22493208Y63935731D01*
X22551333Y63744120D01*
X22645722Y63567531D01*
X22772748Y63412748D01*
X22927531Y63285722D01*
X23104120Y63191333D01*
X23295731Y63133208D01*
X23495000Y63113582D01*
X23694269Y63133208D01*
X23885880Y63191333D01*
X24062469Y63285722D01*
X24217252Y63412748D01*
X24344278Y63567531D01*
X24438667Y63744120D01*
X24496792Y63935731D01*
X24516418Y64135000D01*
X24496792Y64334269D01*
X24438667Y64525880D01*
X24344278Y64702469D01*
X24217252Y64857252D01*
X24062469Y64984278D01*
X23885880Y65078667D01*
X23768171Y65114374D01*
X23694273Y65136791D01*
X23694271Y65136792D01*
X23694269Y65136792D01*
X23495000Y65156418D01*
X23295731Y65136792D01*
X23295728Y65136792D01*
X23295726Y65136791D01*
X23104120Y65078667D01*
X23104116Y65078665D01*
X22927530Y64984278D01*
X22772750Y64857254D01*
X22772746Y64857250D01*
X22645722Y64702470D01*
X22551335Y64525884D01*
X22551333Y64525880D01*
X22493209Y64334274D01*
X22493208Y64334272D01*
X22493208Y64334269D01*
X22473582Y64135000D01*
X19027641Y64135000D01*
X18237292Y64925349D01*
X18211881Y64979843D01*
X18215332Y65013021D01*
X18215663Y65014114D01*
X18215667Y65014120D01*
X18273792Y65205731D01*
X18293418Y65405000D01*
X18273792Y65604269D01*
X18215667Y65795880D01*
X18121278Y65972469D01*
X17994252Y66127252D01*
X17935152Y66175754D01*
X17904523Y66227492D01*
X17914317Y66286816D01*
X17959953Y66325966D01*
X17990916Y66331600D01*
X22473269Y66331600D01*
X22529770Y66311035D01*
X22550790Y66285136D01*
X22551332Y66284121D01*
X22551333Y66284120D01*
X22645722Y66107531D01*
X22772748Y65952748D01*
X22927531Y65825722D01*
X23104120Y65731333D01*
X23295731Y65673208D01*
X23495000Y65653582D01*
X23694269Y65673208D01*
X23885880Y65731333D01*
X24062469Y65825722D01*
X24217252Y65952748D01*
X24344278Y66107531D01*
X24438667Y66284120D01*
X24496792Y66475731D01*
X24516418Y66675000D01*
X24496792Y66874269D01*
X24438667Y67065880D01*
X24344278Y67242469D01*
X24217252Y67397252D01*
X24062469Y67524278D01*
X23885880Y67618667D01*
X23773398Y67652789D01*
X23694273Y67676791D01*
X23694271Y67676792D01*
X23694269Y67676792D01*
X23495000Y67696418D01*
X23295731Y67676792D01*
X23295728Y67676792D01*
X23295726Y67676791D01*
X23104120Y67618667D01*
X23104116Y67618665D01*
X22927530Y67524278D01*
X22772750Y67397254D01*
X22772746Y67397250D01*
X22645722Y67242470D01*
X22550790Y67064864D01*
X22506019Y67024729D01*
X22473269Y67018400D01*
X17990916Y67018400D01*
X17934415Y67038965D01*
X17904351Y67091036D01*
X17914792Y67150250D01*
X17935150Y67174246D01*
X17994252Y67222748D01*
X18121278Y67377531D01*
X18215667Y67554120D01*
X18273792Y67745731D01*
X18293418Y67945000D01*
X18273792Y68144269D01*
X18215667Y68335880D01*
X18121278Y68512469D01*
X17994252Y68667252D01*
X17839469Y68794278D01*
X17662880Y68888667D01*
X17499814Y68938133D01*
X17471273Y68946791D01*
X17471271Y68946792D01*
X17471269Y68946792D01*
X17272000Y68966418D01*
X17072731Y68946792D01*
X17072728Y68946792D01*
X17072726Y68946791D01*
X16881120Y68888667D01*
X16881116Y68888665D01*
X16704530Y68794278D01*
X16549750Y68667254D01*
X16549746Y68667250D01*
X16422722Y68512470D01*
X16328335Y68335884D01*
X16328333Y68335880D01*
X16270209Y68144274D01*
X16270208Y68144272D01*
X16270208Y68144269D01*
X16250582Y67945000D01*
X16270208Y67745731D01*
X16328333Y67554120D01*
X16422722Y67377531D01*
X16549748Y67222748D01*
X16608847Y67174247D01*
X16639477Y67122508D01*
X16629683Y67063184D01*
X16584047Y67024034D01*
X16553084Y67018400D01*
X15630026Y67018400D01*
X15573525Y67038965D01*
X15563600Y67048733D01*
X15551021Y67063250D01*
X15428011Y67142304D01*
X15400950Y67150250D01*
X15287715Y67183500D01*
X15287711Y67183500D01*
X15141489Y67183500D01*
X15141484Y67183500D01*
X15001189Y67142304D01*
X15001188Y67142304D01*
X14878179Y67063250D01*
X14878177Y67063248D01*
X14782424Y66952745D01*
X14721679Y66819730D01*
X14700871Y66675002D01*
X14700871Y66674999D01*
X14721679Y66530271D01*
X14782424Y66397256D01*
X14824529Y66348665D01*
X14878179Y66286750D01*
X15001189Y66207696D01*
X15068288Y66187994D01*
X15141484Y66166501D01*
X15141487Y66166501D01*
X15141489Y66166500D01*
X15141490Y66166500D01*
X15287710Y66166500D01*
X15287711Y66166500D01*
X15287713Y66166501D01*
X15287715Y66166501D01*
X15319220Y66175752D01*
X15428011Y66207696D01*
X15551021Y66286750D01*
X15563596Y66301263D01*
X15616137Y66330496D01*
X15630026Y66331600D01*
X16553084Y66331600D01*
X16609585Y66311035D01*
X16639649Y66258964D01*
X16629208Y66199750D01*
X16608849Y66175755D01*
X16567054Y66141455D01*
X16549750Y66127254D01*
X16549746Y66127250D01*
X16422722Y65972470D01*
X16328335Y65795884D01*
X16328333Y65795880D01*
X16270209Y65604274D01*
X16270208Y65604272D01*
X16270208Y65604269D01*
X16250582Y65405000D01*
X16270208Y65205731D01*
X16270208Y65205729D01*
X16270209Y65205727D01*
X16285167Y65156418D01*
X16328333Y65014120D01*
X16422722Y64837531D01*
X16549748Y64682748D01*
X16670747Y64583448D01*
X16701377Y64531707D01*
X16691583Y64472383D01*
X16645947Y64433234D01*
X16614984Y64427600D01*
X13691450Y64427600D01*
X13634949Y64448165D01*
X13629295Y64453345D01*
X13157292Y64925349D01*
X13131881Y64979843D01*
X13135332Y65013021D01*
X13135663Y65014114D01*
X13135667Y65014120D01*
X13193792Y65205731D01*
X13213418Y65405000D01*
X13193792Y65604269D01*
X13135667Y65795880D01*
X13041278Y65972469D01*
X12914252Y66127252D01*
X12759469Y66254278D01*
X12582880Y66348667D01*
X12422705Y66397256D01*
X12391273Y66406791D01*
X12391271Y66406792D01*
X12391269Y66406792D01*
X12192000Y66426418D01*
X11992731Y66406792D01*
X11992728Y66406792D01*
X11992726Y66406791D01*
X11801120Y66348667D01*
X11801116Y66348665D01*
X11624530Y66254278D01*
X11469750Y66127254D01*
X11469746Y66127250D01*
X11342722Y65972470D01*
X11248335Y65795884D01*
X11248333Y65795880D01*
X11190209Y65604274D01*
X11190208Y65604272D01*
X11190208Y65604269D01*
X11170582Y65405000D01*
X11190208Y65205731D01*
X11190208Y65205729D01*
X11190209Y65205727D01*
X11205167Y65156418D01*
X11248333Y65014120D01*
X11342722Y64837531D01*
X11469748Y64682748D01*
X11624531Y64555722D01*
X11801120Y64461333D01*
X11992731Y64403208D01*
X12192000Y64383582D01*
X12391269Y64403208D01*
X12582880Y64461333D01*
X12582886Y64461337D01*
X12583979Y64461668D01*
X12644017Y64458391D01*
X12671651Y64439708D01*
X13258027Y63853332D01*
X13260618Y63850504D01*
X13288660Y63817085D01*
X13288662Y63817083D01*
X13303239Y63808667D01*
X13326463Y63795258D01*
X13329682Y63793208D01*
X13365434Y63768174D01*
X13369068Y63767201D01*
X13390275Y63758417D01*
X13393539Y63756532D01*
X13436523Y63748954D01*
X13440260Y63748124D01*
X13449985Y63745519D01*
X13482409Y63736830D01*
X13525885Y63740634D01*
X13529700Y63740800D01*
X14725977Y63740800D01*
X14782478Y63720235D01*
X14812542Y63668164D01*
X14805934Y63616385D01*
X14772479Y63543130D01*
X14751671Y63398402D01*
X14751671Y63398399D01*
X14768097Y63284155D01*
X14755783Y63225302D01*
X14743247Y63209490D01*
X13650304Y62116545D01*
X13595810Y62091134D01*
X13588149Y62090800D01*
X13057467Y62090800D01*
X13000966Y62111365D01*
X12970902Y62163436D01*
X12981343Y62222650D01*
X12989514Y62234457D01*
X13041278Y62297531D01*
X13135667Y62474120D01*
X13193792Y62665731D01*
X13213418Y62865000D01*
X13193792Y63064269D01*
X13135667Y63255880D01*
X13041278Y63432469D01*
X12914252Y63587252D01*
X12759469Y63714278D01*
X12582880Y63808667D01*
X12444963Y63850504D01*
X12391273Y63866791D01*
X12391271Y63866792D01*
X12391269Y63866792D01*
X12192000Y63886418D01*
X11992731Y63866792D01*
X11992728Y63866792D01*
X11992726Y63866791D01*
X11801120Y63808667D01*
X11801116Y63808665D01*
X11624530Y63714278D01*
X11469750Y63587254D01*
X11469746Y63587250D01*
X11342722Y63432470D01*
X11247790Y63254864D01*
X11203019Y63214729D01*
X11170269Y63208400D01*
X9602051Y63208400D01*
X9545550Y63228965D01*
X9539896Y63234145D01*
X7112766Y65661276D01*
X7110181Y65664096D01*
X7082138Y65697517D01*
X7066619Y65706477D01*
X7044348Y65719336D01*
X7041113Y65721397D01*
X7005368Y65746427D01*
X7001717Y65747405D01*
X6980525Y65756184D01*
X6977261Y65758069D01*
X6934281Y65765648D01*
X6930538Y65766478D01*
X6888390Y65777771D01*
X6863458Y65775589D01*
X6844914Y65773967D01*
X6841100Y65773800D01*
X6464867Y65773800D01*
X6408366Y65794365D01*
X6378302Y65846436D01*
X6388743Y65905650D01*
X6409104Y65929648D01*
X6437252Y65952748D01*
X6564278Y66107531D01*
X6658667Y66284120D01*
X6716792Y66475731D01*
X6736418Y66675000D01*
X6716792Y66874269D01*
X6701833Y66923583D01*
X6658333Y67066983D01*
X6661611Y67127021D01*
X6680290Y67154651D01*
X7101496Y67575855D01*
X7155990Y67601266D01*
X7163651Y67601600D01*
X11170269Y67601600D01*
X11226770Y67581035D01*
X11247790Y67555136D01*
X11248332Y67554121D01*
X11248333Y67554120D01*
X11342722Y67377531D01*
X11469748Y67222748D01*
X11624531Y67095722D01*
X11801120Y67001333D01*
X11992731Y66943208D01*
X12192000Y66923582D01*
X12391269Y66943208D01*
X12582880Y67001333D01*
X12759469Y67095722D01*
X12914252Y67222748D01*
X13041278Y67377531D01*
X13135667Y67554120D01*
X13193792Y67745731D01*
X13213418Y67945000D01*
X13193792Y68144269D01*
X13135667Y68335880D01*
X13041278Y68512469D01*
X12914252Y68667252D01*
X12793252Y68766553D01*
X12762623Y68818293D01*
X12772417Y68877617D01*
X12818053Y68916766D01*
X12849016Y68922400D01*
X12886300Y68922400D01*
X12890114Y68922234D01*
X12925854Y68919107D01*
X12933589Y68918430D01*
X12933589Y68918431D01*
X12933591Y68918430D01*
X12975749Y68929728D01*
X12979471Y68930553D01*
X13022461Y68938132D01*
X13025720Y68940015D01*
X13046927Y68948798D01*
X13046932Y68948800D01*
X13050566Y68949773D01*
X13086327Y68974815D01*
X13089536Y68976860D01*
X13127338Y68998683D01*
X13155383Y69032107D01*
X13157969Y69034929D01*
X13606250Y69483210D01*
X14073884Y69950845D01*
X14076693Y69953418D01*
X14110117Y69981462D01*
X14131940Y70019264D01*
X14133985Y70022473D01*
X14159027Y70058234D01*
X14160002Y70061873D01*
X14168787Y70083082D01*
X14170667Y70086338D01*
X14170668Y70086339D01*
X14178247Y70129329D01*
X14179072Y70133051D01*
X14190370Y70175209D01*
X14186567Y70218682D01*
X14186400Y70222514D01*
X14186400Y71271550D01*
X14206965Y71328051D01*
X14212134Y71333694D01*
X16114798Y73236358D01*
X16169290Y73261768D01*
X16227368Y73246205D01*
X16261856Y73196952D01*
X16264428Y73165587D01*
X16250582Y73025000D01*
X16270208Y72825731D01*
X16328333Y72634120D01*
X16422722Y72457531D01*
X16549748Y72302748D01*
X16704531Y72175722D01*
X16881120Y72081333D01*
X17072731Y72023208D01*
X17272000Y72003582D01*
X17471269Y72023208D01*
X17662880Y72081333D01*
X17662886Y72081337D01*
X17663979Y72081668D01*
X17724017Y72078391D01*
X17751651Y72059708D01*
X19557232Y70254126D01*
X19559823Y70251298D01*
X19587862Y70217883D01*
X19625652Y70196065D01*
X19628889Y70194003D01*
X19664632Y70168975D01*
X19664634Y70168974D01*
X19668268Y70168001D01*
X19689475Y70159217D01*
X19692739Y70157332D01*
X19735743Y70149750D01*
X19739460Y70148926D01*
X19781609Y70137631D01*
X19819663Y70140961D01*
X19825070Y70141433D01*
X19828902Y70141600D01*
X22776084Y70141600D01*
X22832585Y70121035D01*
X22862649Y70068964D01*
X22852208Y70009750D01*
X22831849Y69985755D01*
X22826619Y69981462D01*
X22772750Y69937254D01*
X22772746Y69937250D01*
X22645722Y69782470D01*
X22550790Y69604864D01*
X22506019Y69564729D01*
X22473269Y69558400D01*
X18720651Y69558400D01*
X18664150Y69578965D01*
X18658496Y69584145D01*
X18237292Y70005349D01*
X18211881Y70059843D01*
X18215332Y70093021D01*
X18215663Y70094114D01*
X18215667Y70094120D01*
X18273792Y70285731D01*
X18293418Y70485000D01*
X18273792Y70684269D01*
X18215667Y70875880D01*
X18121278Y71052469D01*
X17994252Y71207252D01*
X17839469Y71334278D01*
X17662880Y71428667D01*
X17550398Y71462789D01*
X17471273Y71486791D01*
X17471271Y71486792D01*
X17471269Y71486792D01*
X17272000Y71506418D01*
X17072731Y71486792D01*
X17072728Y71486792D01*
X17072726Y71486791D01*
X16881120Y71428667D01*
X16881116Y71428665D01*
X16704530Y71334278D01*
X16549750Y71207254D01*
X16549746Y71207250D01*
X16422722Y71052470D01*
X16328335Y70875884D01*
X16328333Y70875880D01*
X16270209Y70684274D01*
X16270208Y70684272D01*
X16270208Y70684269D01*
X16250582Y70485000D01*
X16270208Y70285731D01*
X16270208Y70285729D01*
X16270209Y70285727D01*
X16289385Y70222514D01*
X16328333Y70094120D01*
X16422722Y69917531D01*
X16549748Y69762748D01*
X16704531Y69635722D01*
X16881120Y69541333D01*
X17072731Y69483208D01*
X17272000Y69463582D01*
X17471269Y69483208D01*
X17662880Y69541333D01*
X17662886Y69541337D01*
X17663979Y69541668D01*
X17724017Y69538391D01*
X17751651Y69519708D01*
X18287232Y68984126D01*
X18289823Y68981298D01*
X18317858Y68947887D01*
X18317859Y68947886D01*
X18317862Y68947883D01*
X18355661Y68926061D01*
X18358884Y68924007D01*
X18394634Y68898974D01*
X18398268Y68898001D01*
X18419475Y68889217D01*
X18422739Y68887332D01*
X18465723Y68879754D01*
X18469460Y68878924D01*
X18479185Y68876319D01*
X18511609Y68867630D01*
X18555085Y68871434D01*
X18558900Y68871600D01*
X22473269Y68871600D01*
X22529770Y68851035D01*
X22550790Y68825136D01*
X22551332Y68824121D01*
X22551333Y68824120D01*
X22645722Y68647531D01*
X22772748Y68492748D01*
X22927531Y68365722D01*
X23104120Y68271333D01*
X23295731Y68213208D01*
X23495000Y68193582D01*
X23694269Y68213208D01*
X23885880Y68271333D01*
X24062469Y68365722D01*
X24217252Y68492748D01*
X24344278Y68647531D01*
X24438667Y68824120D01*
X24496792Y69015731D01*
X24516418Y69215000D01*
X24496792Y69414269D01*
X24459362Y69537658D01*
X24462639Y69597693D01*
X24503741Y69641578D01*
X24563436Y69648776D01*
X24605632Y69625327D01*
X24726055Y69504904D01*
X24751466Y69450410D01*
X24751800Y69442749D01*
X24751800Y63373852D01*
X24731235Y63317351D01*
X24726055Y63311697D01*
X23974651Y62560294D01*
X23920157Y62534883D01*
X23886980Y62538334D01*
X23694275Y62596791D01*
X23694270Y62596792D01*
X23694269Y62596792D01*
X23495000Y62616418D01*
X23295731Y62596792D01*
X23295728Y62596792D01*
X23295726Y62596791D01*
X23104120Y62538667D01*
X23104116Y62538665D01*
X22927530Y62444278D01*
X22772750Y62317254D01*
X22772746Y62317250D01*
X22645722Y62162470D01*
X22551335Y61985884D01*
X22551333Y61985880D01*
X22493209Y61794274D01*
X22493208Y61794272D01*
X22493208Y61794269D01*
X22473582Y61595000D01*
X22493208Y61395731D01*
X22551333Y61204120D01*
X22645722Y61027531D01*
X22772748Y60872748D01*
X22927531Y60745722D01*
X23104120Y60651333D01*
X23295731Y60593208D01*
X23495000Y60573582D01*
X23694269Y60593208D01*
X23885880Y60651333D01*
X24062469Y60745722D01*
X24217252Y60872748D01*
X24344278Y61027531D01*
X24438667Y61204120D01*
X24496792Y61395731D01*
X24516418Y61595000D01*
X24496792Y61794269D01*
X24496790Y61794276D01*
X24438333Y61986983D01*
X24441611Y62047021D01*
X24460290Y62074651D01*
X25326084Y62940445D01*
X25328893Y62943018D01*
X25362317Y62971062D01*
X25384140Y63008864D01*
X25386185Y63012073D01*
X25411227Y63047834D01*
X25412201Y63051471D01*
X25420986Y63072681D01*
X25422868Y63075939D01*
X25430449Y63118938D01*
X25431271Y63122646D01*
X25442570Y63164810D01*
X25438767Y63208283D01*
X25438600Y63212115D01*
X25438600Y69604501D01*
X25438766Y69608314D01*
X25442570Y69651791D01*
X25441985Y69653973D01*
X25431275Y69693945D01*
X25430444Y69697691D01*
X25422868Y69740661D01*
X25420983Y69743926D01*
X25412202Y69765126D01*
X25411227Y69768766D01*
X25386195Y69804515D01*
X25384134Y69807750D01*
X25362317Y69845538D01*
X25328899Y69873579D01*
X25326071Y69876170D01*
X24486366Y70715876D01*
X24483781Y70718696D01*
X24455738Y70752117D01*
X24440219Y70761077D01*
X24417948Y70773936D01*
X24414713Y70775997D01*
X24378968Y70801027D01*
X24375317Y70802005D01*
X24354125Y70810784D01*
X24350861Y70812669D01*
X24307881Y70820248D01*
X24304138Y70821078D01*
X24261992Y70832370D01*
X24261991Y70832370D01*
X24237674Y70830243D01*
X24221712Y70828846D01*
X24163633Y70844409D01*
X24129146Y70893662D01*
X24134387Y70953560D01*
X24158284Y70984355D01*
X24217252Y71032748D01*
X24344278Y71187531D01*
X24438667Y71364120D01*
X24496792Y71555731D01*
X24516418Y71755000D01*
X24496792Y71954269D01*
X24438667Y72145880D01*
X24344278Y72322469D01*
X24217252Y72477252D01*
X24062469Y72604278D01*
X23885880Y72698667D01*
X23773398Y72732789D01*
X23694273Y72756791D01*
X23694271Y72756792D01*
X23694269Y72756792D01*
X23495000Y72776418D01*
X23295731Y72756792D01*
X23295729Y72756792D01*
X23295724Y72756791D01*
X23103018Y72698334D01*
X23042980Y72701612D01*
X23015347Y72720294D01*
X21440642Y74295000D01*
X22473582Y74295000D01*
X22493208Y74095731D01*
X22551333Y73904120D01*
X22645722Y73727531D01*
X22772748Y73572748D01*
X22927531Y73445722D01*
X23104120Y73351333D01*
X23295731Y73293208D01*
X23495000Y73273582D01*
X23694269Y73293208D01*
X23885880Y73351333D01*
X24062469Y73445722D01*
X24217252Y73572748D01*
X24344278Y73727531D01*
X24438667Y73904120D01*
X24496792Y74095731D01*
X24516418Y74295000D01*
X24496792Y74494269D01*
X24438667Y74685880D01*
X24344278Y74862469D01*
X24217252Y75017252D01*
X24062469Y75144278D01*
X23885880Y75238667D01*
X23773398Y75272789D01*
X23694273Y75296791D01*
X23694271Y75296792D01*
X23694269Y75296792D01*
X23495000Y75316418D01*
X23295731Y75296792D01*
X23295728Y75296792D01*
X23295726Y75296791D01*
X23104120Y75238667D01*
X23104116Y75238665D01*
X22927530Y75144278D01*
X22772750Y75017254D01*
X22772746Y75017250D01*
X22645722Y74862470D01*
X22551335Y74685884D01*
X22551333Y74685880D01*
X22493209Y74494274D01*
X22493208Y74494272D01*
X22493208Y74494269D01*
X22473582Y74295000D01*
X21440642Y74295000D01*
X21260566Y74475076D01*
X21257981Y74477896D01*
X21229938Y74511317D01*
X21214419Y74520277D01*
X21192148Y74533136D01*
X21188913Y74535197D01*
X21153168Y74560227D01*
X21149517Y74561205D01*
X21128325Y74569984D01*
X21125061Y74571869D01*
X21082081Y74579448D01*
X21078338Y74580278D01*
X21036190Y74591571D01*
X21011258Y74589389D01*
X20992714Y74587767D01*
X20988900Y74587600D01*
X17929016Y74587600D01*
X17872515Y74608165D01*
X17842451Y74660236D01*
X17852892Y74719450D01*
X17873251Y74743447D01*
X17994252Y74842748D01*
X18121278Y74997531D01*
X18215667Y75174120D01*
X18273792Y75365731D01*
X18293418Y75565000D01*
X18273792Y75764269D01*
X18215667Y75955880D01*
X18121278Y76132469D01*
X17994252Y76287252D01*
X17839469Y76414278D01*
X17662880Y76508667D01*
X17550247Y76542834D01*
X17471273Y76566791D01*
X17471271Y76566792D01*
X17471269Y76566792D01*
X17272000Y76586418D01*
X17072731Y76566792D01*
X17072728Y76566792D01*
X17072726Y76566791D01*
X16881120Y76508667D01*
X16881116Y76508665D01*
X16704530Y76414278D01*
X16549750Y76287254D01*
X16549746Y76287250D01*
X16422722Y76132470D01*
X16328335Y75955884D01*
X16328333Y75955880D01*
X16270209Y75764274D01*
X16270208Y75764272D01*
X16270208Y75764269D01*
X16250582Y75565000D01*
X16270209Y75365725D01*
X16328666Y75173020D01*
X16325388Y75112982D01*
X16306706Y75085350D01*
X16126804Y74905446D01*
X16072310Y74880035D01*
X16064649Y74879700D01*
X13124948Y74879700D01*
X13068447Y74900265D01*
X13038383Y74952336D01*
X13047426Y75009035D01*
X13135667Y75174120D01*
X13193792Y75365731D01*
X13213418Y75565000D01*
X13193792Y75764269D01*
X13147873Y75915643D01*
X13151151Y75975679D01*
X13169830Y76003310D01*
X14001520Y76835000D01*
X22473582Y76835000D01*
X22493208Y76635731D01*
X22551333Y76444120D01*
X22645722Y76267531D01*
X22772748Y76112748D01*
X22927531Y75985722D01*
X23104120Y75891333D01*
X23295731Y75833208D01*
X23495000Y75813582D01*
X23694269Y75833208D01*
X23885880Y75891333D01*
X24062469Y75985722D01*
X24217252Y76112748D01*
X24344278Y76267531D01*
X24438667Y76444120D01*
X24496792Y76635731D01*
X24516418Y76835000D01*
X24496792Y77034269D01*
X24438667Y77225880D01*
X24344278Y77402469D01*
X24217252Y77557252D01*
X24062469Y77684278D01*
X23885880Y77778667D01*
X23773398Y77812789D01*
X23694273Y77836791D01*
X23694271Y77836792D01*
X23694269Y77836792D01*
X23495000Y77856418D01*
X23295731Y77836792D01*
X23295728Y77836792D01*
X23295726Y77836791D01*
X23104120Y77778667D01*
X23104116Y77778665D01*
X22927530Y77684278D01*
X22772750Y77557254D01*
X22772746Y77557250D01*
X22645722Y77402470D01*
X22551335Y77225884D01*
X22551333Y77225880D01*
X22493209Y77034274D01*
X22493208Y77034272D01*
X22493208Y77034269D01*
X22473582Y76835000D01*
X14001520Y76835000D01*
X18674278Y81507755D01*
X18728772Y81533166D01*
X18736433Y81533500D01*
X22493634Y81533500D01*
X22550135Y81512935D01*
X22571154Y81487037D01*
X22645722Y81347531D01*
X22772748Y81192748D01*
X22927531Y81065722D01*
X23104120Y80971333D01*
X23295731Y80913208D01*
X23495000Y80893582D01*
X23694269Y80913208D01*
X23885880Y80971333D01*
X24062469Y81065722D01*
X24217252Y81192748D01*
X24341954Y81344700D01*
X24393692Y81375328D01*
X24453017Y81365534D01*
X24492166Y81319898D01*
X24497800Y81288935D01*
X24497800Y80899852D01*
X24477235Y80843351D01*
X24472055Y80837697D01*
X23974651Y80340294D01*
X23920157Y80314883D01*
X23886980Y80318334D01*
X23694275Y80376791D01*
X23694270Y80376792D01*
X23694269Y80376792D01*
X23495000Y80396418D01*
X23295731Y80376792D01*
X23295728Y80376792D01*
X23295726Y80376791D01*
X23104120Y80318667D01*
X23104116Y80318665D01*
X22927530Y80224278D01*
X22772750Y80097254D01*
X22772746Y80097250D01*
X22645722Y79942470D01*
X22551335Y79765884D01*
X22551333Y79765880D01*
X22493209Y79574274D01*
X22493208Y79574272D01*
X22493208Y79574269D01*
X22473582Y79375000D01*
X22493208Y79175731D01*
X22551333Y78984120D01*
X22645722Y78807531D01*
X22772748Y78652748D01*
X22927531Y78525722D01*
X23104120Y78431333D01*
X23295731Y78373208D01*
X23495000Y78353582D01*
X23694269Y78373208D01*
X23885880Y78431333D01*
X24062469Y78525722D01*
X24217252Y78652748D01*
X24344278Y78807531D01*
X24438667Y78984120D01*
X24496792Y79175731D01*
X24516418Y79375000D01*
X24496792Y79574269D01*
X24496790Y79574276D01*
X24438333Y79766983D01*
X24441611Y79827021D01*
X24460291Y79854652D01*
X25072067Y80466429D01*
X25074876Y80469003D01*
X25108317Y80497062D01*
X25130139Y80534861D01*
X25132198Y80538092D01*
X25157226Y80573834D01*
X25158201Y80577474D01*
X25166986Y80598679D01*
X25168867Y80601937D01*
X25168867Y80601938D01*
X25168868Y80601939D01*
X25176450Y80644943D01*
X25177269Y80648640D01*
X25188570Y80690809D01*
X25184766Y80734286D01*
X25184600Y80738100D01*
X25184600Y82533101D01*
X25184766Y82536913D01*
X25188570Y82580390D01*
X25177277Y82622537D01*
X25176446Y82626281D01*
X25174512Y82637250D01*
X25168868Y82669261D01*
X25166986Y82672520D01*
X25158200Y82693731D01*
X25157227Y82697366D01*
X25132189Y82733123D01*
X25130133Y82736351D01*
X25108317Y82774138D01*
X25074899Y82802179D01*
X25072071Y82804770D01*
X24435566Y83441276D01*
X24432976Y83444102D01*
X24404938Y83477517D01*
X24389419Y83486477D01*
X24367148Y83499336D01*
X24363913Y83501397D01*
X24328168Y83526427D01*
X24324517Y83527405D01*
X24303325Y83536184D01*
X24300061Y83538069D01*
X24257081Y83545648D01*
X24253338Y83546478D01*
X24211191Y83557771D01*
X24203527Y83558441D01*
X24203718Y83560626D01*
X24155511Y83573544D01*
X24121025Y83622799D01*
X24118137Y83649859D01*
X24118249Y83652146D01*
X23755085Y84015309D01*
X23772470Y84023248D01*
X23882869Y84118910D01*
X23932878Y84196727D01*
X24297853Y83831752D01*
X24343859Y83887809D01*
X24438203Y84064314D01*
X24496297Y84255823D01*
X24515915Y84455000D01*
X24496297Y84654178D01*
X24438203Y84845687D01*
X24343859Y85022193D01*
X24297853Y85078250D01*
X23932878Y84713275D01*
X23882869Y84791090D01*
X23772470Y84886752D01*
X23755083Y84894692D01*
X24118248Y85257856D01*
X24062192Y85303860D01*
X23885686Y85398204D01*
X23694177Y85456298D01*
X23495000Y85475916D01*
X23295822Y85456298D01*
X23104313Y85398204D01*
X22927808Y85303861D01*
X22871750Y85257856D01*
X23234914Y84894692D01*
X23217530Y84886752D01*
X23107131Y84791090D01*
X23057121Y84713273D01*
X22692144Y85078250D01*
X22646139Y85022192D01*
X22551796Y84845687D01*
X22493702Y84654178D01*
X22474084Y84455000D01*
X22493702Y84255823D01*
X22551796Y84064314D01*
X22646140Y83887808D01*
X22692144Y83831752D01*
X23057120Y84196728D01*
X23107131Y84118910D01*
X23217530Y84023248D01*
X23234913Y84015310D01*
X22871749Y83652146D01*
X22872051Y83646013D01*
X22854283Y83588571D01*
X22803750Y83555989D01*
X22784257Y83553800D01*
X6464867Y83553800D01*
X6408366Y83574365D01*
X6378302Y83626436D01*
X6388743Y83685650D01*
X6409104Y83709648D01*
X6437252Y83732748D01*
X6564278Y83887531D01*
X6658667Y84064120D01*
X6716792Y84255731D01*
X6736418Y84455000D01*
X6716792Y84654269D01*
X6658667Y84845880D01*
X6564278Y85022469D01*
X6437252Y85177252D01*
X6282469Y85304278D01*
X6105880Y85398667D01*
X5993398Y85432789D01*
X5914273Y85456791D01*
X5914271Y85456792D01*
X5914269Y85456792D01*
X5715000Y85476418D01*
X5515731Y85456792D01*
X5515728Y85456792D01*
X5515726Y85456791D01*
X5324120Y85398667D01*
X5324116Y85398665D01*
X5147530Y85304278D01*
X4992750Y85177254D01*
X4992746Y85177250D01*
X4865722Y85022470D01*
X4771335Y84845884D01*
X4771333Y84845880D01*
X4713209Y84654274D01*
X4713208Y84654272D01*
X4713208Y84654269D01*
X4693582Y84455000D01*
X4713208Y84255731D01*
X4771333Y84064120D01*
X4865722Y83887531D01*
X4992748Y83732748D01*
X5020896Y83709648D01*
X5039030Y83694766D01*
X5069660Y83643025D01*
X5059866Y83583701D01*
X5014230Y83544552D01*
X4998534Y83540254D01*
X4986143Y83538069D01*
X4986141Y83538069D01*
X4986139Y83538068D01*
X4982876Y83536184D01*
X4982867Y83536179D01*
X4961688Y83527407D01*
X4958036Y83526428D01*
X4958034Y83526428D01*
X4922278Y83501392D01*
X4919046Y83499333D01*
X4881265Y83477519D01*
X4881260Y83477515D01*
X4853222Y83444102D01*
X4850631Y83441275D01*
X2867929Y81458572D01*
X2865101Y81455982D01*
X2831685Y81427941D01*
X2831683Y81427939D01*
X2809867Y81390154D01*
X2807808Y81386922D01*
X2782772Y81351166D01*
X2782772Y81351164D01*
X2781793Y81347512D01*
X2773021Y81326333D01*
X2771133Y81323063D01*
X2771131Y81323057D01*
X2763552Y81280083D01*
X2762723Y81276341D01*
X2751429Y81234189D01*
X2753496Y81210571D01*
X2755233Y81190714D01*
X2755400Y81186902D01*
X2755400Y37786700D01*
X2755233Y37782886D01*
X2754821Y37778165D01*
X2751429Y37739411D01*
X2751429Y37739409D01*
X635500Y37739409D01*
X635500Y93891600D01*
X656065Y93948101D01*
X708136Y93978165D01*
X723400Y93979500D01*
X25946600Y93979500D01*
X26003101Y93958935D01*
G37*
G04 #@! TD.AperFunction*
M02*
